<svg width="15" height="15" viewBox="0 0 15 15" fill="none" xmlns="http://www.w3.org/2000/svg">
<path d="M7.4998 14.5313C8.28228 14.5313 8.9166 14.1572 8.9166 13.6957C8.9166 13.2343 8.28228 12.8602 7.4998 12.8602C6.71733 12.8602 6.08301 13.2343 6.08301 13.6957C6.08301 14.1572 6.71733 14.5313 7.4998 14.5313Z" fill="#424242"/>
<path d="M7.5001 0.46875C5.02979 0.46875 3.02588 2.30508 3.02588 4.56914C3.02588 5.15977 3.204 5.79141 3.46533 6.34805C3.83213 7.13086 4.23174 7.70977 4.34893 7.92305C4.67471 8.51602 4.62783 9.14062 4.71807 9.53203C4.88799 10.2633 5.39658 10.5281 7.49893 10.5281C9.60127 10.5281 10.0536 10.2762 10.2423 9.60234C10.3712 9.14414 10.2458 8.64375 10.5704 8.05195C10.6876 7.83867 11.1646 7.13203 11.5325 6.34805C11.7938 5.79141 11.972 5.15977 11.972 4.56914C11.9743 2.30508 9.97041 0.46875 7.5001 0.46875Z" fill="#FFD600"/>
<path d="M7.4998 10.616C8.91978 10.616 10.0709 10.382 10.0709 10.0933C10.0709 9.80468 8.91978 9.57068 7.4998 9.57068C6.07983 9.57068 4.92871 9.80468 4.92871 10.0933C4.92871 10.382 6.07983 10.616 7.4998 10.616Z" fill="#B26500"/>
<path d="M7.4998 10.616C8.91978 10.616 10.0709 10.382 10.0709 10.0933C10.0709 9.80468 8.91978 9.57068 7.4998 9.57068C6.07983 9.57068 4.92871 9.80468 4.92871 10.0933C4.92871 10.382 6.07983 10.616 7.4998 10.616Z" fill="#B26500"/>
<path d="M7.4998 10.3347C8.53469 10.3347 9.37363 10.2267 9.37363 10.0933C9.37363 9.96001 8.53469 9.85193 7.4998 9.85193C6.46492 9.85193 5.62598 9.96001 5.62598 10.0933C5.62598 10.2267 6.46492 10.3347 7.4998 10.3347Z" fill="#FFA000"/>
<path d="M6.24639 6.65272C6.17373 6.83553 5.98506 7.21171 6.0835 7.38046C6.31201 7.77303 6.85694 7.91366 6.85694 8.2746C6.85694 8.82538 6.45616 10.6101 6.45616 10.6101M8.67569 6.5871C8.67569 6.5871 8.93819 7.1496 8.82686 7.40155C8.74365 7.58905 8.24326 7.89139 8.17881 7.94178C7.87998 8.17616 8.27725 10.6113 8.27725 10.6113" stroke="#B26500" stroke-width="0.25" stroke-miterlimit="10"/>
<path d="M6.24619 6.65274C6.64931 5.85587 6.85674 4.03712 6.34463 4.1297C5.48095 4.28556 6.54502 7.27384 7.06884 6.93048C7.59267 6.58712 8.24189 4.13556 7.44502 4.12618C6.64814 4.11681 7.49892 7.2504 8.04033 6.90235C8.46806 6.62696 9.5122 4.1297 8.65439 4.1297C7.92431 4.1297 8.67666 6.58712 8.67666 6.58712" stroke="white" stroke-width="0.25" stroke-miterlimit="10"/>
<path d="M10.0652 10.2023C10.0652 10.2023 9.39017 10.5281 7.49994 10.5281C5.60971 10.5281 4.93471 10.2023 4.93471 10.2023C4.93471 10.2023 4.89252 10.8047 5.03197 11.0777C5.19955 11.4058 5.32846 11.5195 5.32846 11.5195L5.39877 11.8535L5.37064 11.9414C5.33432 12.0562 5.3601 12.1828 5.44096 12.273L5.50189 12.341L5.56986 12.6621L5.54642 12.7266C5.50189 12.8496 5.53236 12.9867 5.62377 13.0805L5.6683 13.1262L5.72338 13.3887C5.72338 13.3887 6.00228 13.984 7.49994 13.984C8.9976 13.984 9.2765 13.3887 9.2765 13.3887L9.28119 13.3664L9.31166 13.3359C9.3726 13.2762 9.39252 13.1871 9.36322 13.1074L9.34564 13.0617L9.4183 12.7148L9.54603 12.5801C9.60932 12.5133 9.62338 12.4148 9.58236 12.3328L9.52377 12.2168L9.5976 11.8687L9.64447 11.8324C9.71361 11.7562 9.71478 11.6414 9.68432 11.5629C9.66088 11.5008 9.67963 11.4305 9.72767 11.3848C9.8015 11.3144 9.89643 11.2078 9.96674 11.0754C10.1109 10.807 10.0652 10.2023 10.0652 10.2023Z" fill="#82AEC0"/>
<path d="M5.32861 11.5195L5.39189 11.8559C6.07393 11.8524 6.98447 11.8863 8.73174 11.6086C9.04697 11.5371 9.42549 11.3953 9.00713 11.4539C9.00713 11.4527 7.40283 11.6063 5.32861 11.5195ZM5.56299 12.6645C6.31768 12.6516 7.85986 12.5766 9.51689 12.2168L9.59072 11.8688C7.85752 12.2625 6.22744 12.3328 5.49502 12.3422L5.56299 12.6645ZM9.41143 12.7137C7.87744 13.0465 6.44189 13.132 5.66494 13.1508L5.71533 13.3899C5.71533 13.3899 5.73994 14.1317 7.49189 14.1317C9.24385 14.1317 9.26846 13.3899 9.26846 13.3899C9.26846 13.3899 8.5208 13.6031 7.60088 13.4988C7.59118 13.4989 7.58157 13.4971 7.57258 13.4934C7.56359 13.4898 7.55541 13.4844 7.5485 13.4776C7.53455 13.4639 7.52662 13.4452 7.52646 13.4256C7.52631 13.406 7.53394 13.3872 7.54767 13.3732C7.56141 13.3593 7.58013 13.3513 7.59971 13.3512C8.14932 13.2785 8.80557 13.1707 9.33877 13.0606L9.41143 12.7137Z" fill="#2F7889"/>
<path d="M4.94287 10.2023C4.94287 10.2023 5.6999 10.5281 7.49287 10.5281C9.28584 10.5281 10.0569 10.2023 10.0569 10.2023" stroke="#82AEC0" stroke-width="0.499625" stroke-miterlimit="10" stroke-linecap="round"/>
<path d="M5.84542 1.20939C6.30363 1.09689 6.78292 1.15314 7.11105 1.55158C7.20363 1.66408 7.27511 1.79768 7.29152 1.94299C7.32433 2.22307 7.15089 2.48791 6.94464 2.68244C6.35636 3.23791 5.52081 3.50744 5.14113 4.27385C5.05206 4.45314 4.98175 4.6465 4.84581 4.79299C4.70988 4.93947 4.4837 5.02854 4.30675 4.93479C4.213 4.88557 4.14855 4.79299 4.09581 4.70041C3.763 4.10744 3.78761 3.35158 4.08058 2.73752C4.40285 2.06486 5.10949 1.38986 5.84542 1.20939Z" fill="#FFFF8D"/>
<path d="M5.44349 10.7731C5.34037 10.7262 5.38138 10.5715 5.49388 10.5797C5.87123 10.609 6.51341 10.6453 7.36302 10.6453C8.25834 10.6453 9.04584 10.5785 9.50521 10.5293C9.61888 10.5176 9.66224 10.6735 9.55794 10.7215C9.20404 10.8879 8.55599 11.0778 7.44505 11.0778C6.36107 11.0778 5.76341 10.9172 5.44349 10.7731Z" fill="#FFD600"/>
<path d="M6.08668 11.9567C6.00816 11.9848 5.9273 12.0235 5.88746 12.0961C5.8734 12.1231 5.86519 12.1535 5.87105 12.184C5.88043 12.2285 5.92144 12.2602 5.96246 12.2801C6.04449 12.3199 6.13707 12.3305 6.2273 12.3317C6.41363 12.334 6.59879 12.2989 6.78277 12.2637C6.83785 12.2532 6.8941 12.2426 6.94332 12.2157C6.99254 12.1887 7.03473 12.143 7.04293 12.0879C7.05465 12.0141 7.00191 11.9426 6.93746 11.9074C6.7148 11.7844 6.31168 11.8758 6.08668 11.9567ZM6.26129 12.7289C6.18277 12.7571 6.10191 12.7957 6.06207 12.8684C6.04801 12.8953 6.0398 12.9258 6.04566 12.9563C6.05504 13.0008 6.09605 13.0324 6.13707 13.0524C6.2191 13.0922 6.31168 13.1028 6.40191 13.1039C6.58824 13.1063 6.7734 13.0711 6.95738 13.036C7.01246 13.0254 7.06871 13.0149 7.11793 12.9879C7.16715 12.961 7.20933 12.9153 7.21754 12.8602C7.22926 12.7864 7.17652 12.7149 7.11207 12.6797C6.88941 12.5578 6.48512 12.6492 6.26129 12.7289Z" fill="#94D1E0"/>
<path d="M5.86055 9.86717C5.96719 9.87772 6.07969 9.86834 6.16992 9.81092C6.26016 9.7535 6.31758 9.63631 6.28125 9.53553C6.2625 9.4828 6.22149 9.44061 6.18164 9.40076C6.09375 9.31405 6.00586 9.22733 5.91914 9.14061C5.82188 9.04334 5.72461 8.94725 5.61914 8.85936C5.45625 8.72342 5.23711 8.59569 5.02266 8.69529C4.83985 8.77967 4.79649 8.94608 4.87734 9.12069C5.04961 9.48748 5.45039 9.82498 5.86055 9.86717Z" fill="#FFFF8D"/>
</svg>
