<svg width="10" height="10" viewBox="0 0 10 10" fill="none" xmlns="http://www.w3.org/2000/svg">
<path d="M1.25 8.75V6.97917L6.75 1.48958C6.83333 1.41319 6.92542 1.35417 7.02625 1.3125C7.12708 1.27083 7.23292 1.25 7.34375 1.25C7.45458 1.25 7.56222 1.27083 7.66667 1.3125C7.77111 1.35417 7.86139 1.41667 7.9375 1.5L8.51042 2.08333C8.59375 2.15972 8.65458 2.25 8.69292 2.35417C8.73125 2.45833 8.75028 2.5625 8.75 2.66667C8.75 2.77778 8.73097 2.88375 8.69292 2.98458C8.65486 3.08542 8.59403 3.17736 8.51042 3.26042L3.02083 8.75H1.25ZM7.33333 3.25L7.91667 2.66667L7.33333 2.08333L6.75 2.66667L7.33333 3.25Z" fill="#F9F9F9"/>
</svg>
