<svg width="234" height="62" viewBox="0 0 234 62" fill="none" xmlns="http://www.w3.org/2000/svg">
<path fill-rule="evenodd" clip-rule="evenodd" d="M71.8084 40.8L80.6303 49.6788C86.7799 55.8682 96.7509 55.8682 102.901 49.6788L94.0801 40.8C91.0046 37.7053 86.9744 36.158 82.9443 36.158C78.9141 36.158 74.8839 37.7053 71.8084 40.8Z" fill="url(#paint0_linear_2488_979)"/>
<path fill-rule="evenodd" clip-rule="evenodd" d="M71.8084 24.1492V35.0878C73.9887 33.0741 76.0102 30.7704 77.1457 28.0111C78.4836 24.8006 78.8133 21.2985 79.7708 17.9462C80.9921 13.5216 83.5692 10.473 87.5565 8.29877C78.8583 8.29877 71.8084 15.3949 71.8084 24.1485V24.1492Z" fill="#4C9B00"/>
<path d="M55.1709 39.5074C54.4579 39.729 53.745 39.8938 52.9792 40.0601C52.2112 40.2818 51.4439 40.3365 50.6766 40.3365C49.6362 40.3365 48.8682 40.0054 48.319 39.3426C47.7713 38.6819 47.5532 37.7974 47.5532 36.6955C47.5532 35.5368 47.8263 34.6545 48.3755 34.0464C48.9776 33.3857 49.8543 32.9992 51.0606 32.8891L56.8706 32.3364V38.9014C56.4315 39.0662 55.8845 39.2879 55.1716 39.5074H55.1709ZM65.365 17.3323C64.3238 15.7338 62.7885 14.5751 60.7613 13.9137C58.7877 13.1962 56.3772 12.8644 53.5269 12.8644C51.9373 12.8644 50.2383 12.9745 48.4299 13.1962C46.6765 13.361 44.9217 13.6374 43.277 13.9137C41.6331 14.1887 40.2087 14.465 39.0574 14.7961L39.3863 21.8008C40.5376 21.6907 41.8526 21.5245 43.4422 21.4165C45.0304 21.305 46.62 21.1948 48.2647 21.0847C49.8543 20.9746 51.3352 20.9746 52.5959 20.9746C54.0203 20.9746 55.0622 21.2495 55.7737 21.8008C56.4866 22.3535 56.8706 23.2913 56.8706 24.6141V26.3241L49.5261 26.9315C46.9504 27.0416 44.813 27.4274 43.0046 28.0341C41.1947 28.6415 39.8254 29.6339 38.8936 31.069C37.9626 32.4479 37.4678 34.4328 37.4678 36.9697C37.4678 40.6114 38.3459 43.2584 40.1536 45.0231C41.907 46.7899 44.5935 47.6723 48.2103 47.6723C49.5797 47.6723 50.9512 47.5621 52.3213 47.2858C53.6363 47.0101 54.897 46.6784 55.9939 46.2926C57.1452 45.9076 58.0762 45.5765 58.7877 45.2455C59.0623 45.6866 59.4463 46.1278 59.8303 46.5143C61.638 48.3358 64.1593 49.4931 66.9553 49.4931V24.0642C66.9553 21.1956 66.4075 18.9329 65.3657 17.333L65.365 17.3323Z" fill="#2B4C00"/>
<path d="M102.028 27.3698C102.07 24.8106 102.542 22.9898 103.44 21.9074C104.34 20.8293 105.71 20.2859 107.551 20.2859C109.393 20.2859 110.731 20.8084 111.567 21.8433C112.395 22.8833 112.814 24.7257 112.814 27.3698H102.028ZM122.875 28.2968C122.875 22.9574 121.596 19.0524 119.026 16.581C116.463 14.1074 112.636 12.8746 107.551 12.8746C104.088 12.8746 101.214 13.5266 98.9333 14.8242C96.653 16.1283 94.9361 18.0945 93.7741 20.717C92.6121 23.3461 92.0293 26.6653 92.0293 30.6775C92.0293 32.4955 92.1344 34.1659 92.3468 35.6866C94.1245 36.5581 95.7656 37.7319 97.2057 39.1807L105.626 47.6558C106.101 47.6788 106.59 47.6896 107.092 47.6896C108.756 47.6896 110.51 47.6039 112.352 47.4255C114.194 47.2477 115.971 47.0375 117.685 46.8008C119.391 46.5582 120.815 46.3279 121.954 46.1063L121.757 39.2224C120.574 39.3081 119.15 39.393 117.486 39.4851C115.816 39.5722 114.141 39.647 112.454 39.7176C110.763 39.7831 109.238 39.8154 107.884 39.8154C105.775 39.8154 104.298 39.298 103.441 38.258C102.586 37.2246 102.135 35.6456 102.093 33.5282H122.351L122.875 28.2982L122.875 28.2968Z" fill="#3E7A00"/>
<path d="M141.951 39.2856C143.797 39.2856 145.179 38.9193 146.099 38.1924C147.019 37.4648 147.64 36.3932 147.972 34.9819C148.299 33.5706 148.464 31.8736 148.464 29.8865C148.464 27.7692 148.309 26.0779 148.004 24.8227C147.699 23.5618 147.169 22.6622 146.425 22.1081C145.681 21.5582 144.67 21.284 143.401 21.284C142.481 21.284 141.512 21.4129 140.505 21.677C139.499 21.9411 138.643 22.1887 137.941 22.4039V39.0222C138.508 39.0654 139.188 39.1194 139.981 39.1842C140.767 39.254 141.426 39.2864 141.95 39.2864L141.951 39.2856ZM141.822 47.6887C140.682 47.6887 139.28 47.624 137.61 47.4944C135.946 47.3598 134.249 47.2037 132.515 47.0317C130.781 46.8539 129.239 46.6761 127.88 46.4984V0.365509H137.941V14.5276C138.948 14.1771 140.243 13.8108 141.822 13.4344C143.401 13.063 144.825 12.8737 146.099 12.8737C149.209 12.8737 151.687 13.5258 153.528 14.8241C155.368 16.1274 156.686 18.0289 157.472 20.5176C158.264 23.012 158.661 26.0714 158.661 29.6864C158.661 34.1463 158.152 37.6858 157.146 40.309C156.134 42.9381 154.405 44.8229 151.949 45.9708C149.493 47.118 146.12 47.6887 141.822 47.6887Z" fill="#3E7A00"/>
<path d="M174.771 47.6896C171.918 47.6896 169.697 47.0649 168.096 45.8047C166.496 44.5496 165.367 42.6856 164.708 40.2127C164.05 37.7406 163.723 34.6315 163.723 30.8776V13.6022H173.786V30.4141C173.786 32.5365 173.892 34.212 174.112 35.4455C174.331 36.6848 174.771 37.552 175.428 38.0637C176.087 38.5697 177.029 38.823 178.254 38.823C179.394 38.823 180.491 38.6776 181.547 38.3926C182.596 38.1069 183.431 37.8111 184.046 37.4981V13.6022H194.108V46.8979H184.109V44.98C182.616 45.7723 181.16 46.4244 179.737 46.9303C178.307 47.4363 176.654 47.6896 174.77 47.6896H174.771Z" fill="#3E7A00"/>
<path d="M200.552 46.8972V13.6014H210.551V15.654C211.252 15.2121 212.087 14.781 213.05 14.3614C214.013 13.9462 215.031 13.5914 216.106 13.3057C217.182 13.0199 218.199 12.8746 219.168 12.8746C222.278 12.8746 224.702 13.4136 226.431 14.496C228.165 15.5792 229.391 17.3669 230.119 19.8563C230.841 22.35 231.2 25.6519 231.2 29.752V46.8979H221.137V30.3494C221.137 28.2759 221.009 26.6005 220.747 25.318C220.479 24.0413 220.019 23.115 219.361 22.5386C218.708 21.9678 217.761 21.6764 216.535 21.6764C215.834 21.6764 215.111 21.7462 214.368 21.8757C213.618 22.0103 212.918 22.1881 212.259 22.404C211.601 22.63 211.055 22.8451 210.616 23.0661V46.8972H200.554H200.552Z" fill="#3E7A00"/>
<path d="M17.41 39.3505C18.9889 39.3505 20.2145 38.99 21.0926 38.2573C21.9707 37.5297 22.5914 36.4746 22.9654 35.0849C23.3401 33.6952 23.5274 31.9823 23.5274 29.9514C23.5274 26.6437 23.0884 24.3702 22.211 23.1366C21.3329 21.8973 20.0379 21.2841 18.3303 21.2841C17.7575 21.2841 17.1311 21.359 16.4575 21.5159C15.7725 21.667 15.1303 21.8549 14.5146 22.0758C13.899 22.2967 13.3748 22.5177 12.9358 22.7386V38.8878C13.3748 38.9799 14.0219 39.0763 14.8786 39.1843C15.7295 39.2973 16.5755 39.3512 17.41 39.3512V39.3505ZM2.87323 60.6663V13.6014H12.807L12.8714 15.654C13.4871 15.2553 14.2415 14.8408 15.1403 14.3989C16.0399 13.9577 17.0131 13.5906 18.0686 13.3057C19.1169 13.0199 20.1501 12.8746 21.157 12.8746C25.6312 12.8746 28.8318 14.3291 30.759 17.2438C32.6911 20.1585 33.655 24.4839 33.655 30.2155C33.655 34.2774 33.1838 37.601 32.242 40.181C31.2946 42.7611 29.775 44.6575 27.6713 45.8752C25.5625 47.0872 22.758 47.6903 19.252 47.6903C18.198 47.6903 17.0682 47.5931 15.864 47.3945C14.6598 47.1952 13.6801 47.0332 12.9365 46.8986V60.667H2.87394L2.87323 60.6663Z" fill="#2B4C00"/>
<path fill-rule="evenodd" clip-rule="evenodd" d="M73.142 39.6024C75.5826 39.6722 78.001 39.999 80.3443 40.7719C83.1173 41.7147 85.4577 43.4319 87.7288 45.1692C92.7322 49.1383 96.3726 51.0649 102.902 49.6788L94.0801 40.7993C91.0053 37.7053 86.9766 36.158 82.9464 36.158C79.4754 36.158 76.003 37.3059 73.142 39.6024Z" fill="url(#paint1_linear_2488_979)"/>
<path d="M102.902 49.6789L102.901 49.6803L95.1062 42.8116C88.9931 37.4254 79.9066 37.65 74.0666 43.0729L71.8084 40.7994C77.9595 34.61 87.9298 34.61 94.0794 40.7994L102.902 49.6789Z" fill="black"/>
<path d="M87.5565 8.29941V8.30085C79.7007 9.67042 73.9937 16.8292 74.5564 25.0092L75.333 36.3069C74.2003 36.5681 73.0197 36.7049 71.8084 36.7049V24.1492C71.8084 15.3948 78.859 8.29941 87.5565 8.29941Z" fill="black"/>
<path fill-rule="evenodd" clip-rule="evenodd" d="M87.5573 20.8559V8.30019C78.8598 8.30019 71.8092 15.3963 71.8092 24.1499V36.7064C80.5066 36.7064 87.5573 29.6095 87.5573 20.8559Z" fill="#2B4C00"/>
<path fill-rule="evenodd" clip-rule="evenodd" d="M71.8084 40.8L80.6303 49.6788C86.7799 55.8682 96.7509 55.8682 102.901 49.6788L94.0801 40.8C91.0046 37.7053 86.9744 36.158 82.9443 36.158C78.9141 36.158 74.8839 37.7053 71.8084 40.8Z" fill="url(#paint2_linear_2488_979)"/>
<path fill-rule="evenodd" clip-rule="evenodd" d="M71.8084 24.1492V35.0878C73.9887 33.0741 76.0102 30.7704 77.1457 28.0111C78.4836 24.8006 78.8133 21.2985 79.7708 17.9462C80.9921 13.5216 83.5692 10.473 87.5565 8.29877C78.8583 8.29877 71.8084 15.3949 71.8084 24.1485V24.1492Z" fill="#2B4C00"/>
<path d="M55.1709 39.5074C54.4579 39.729 53.745 39.8938 52.9792 40.0601C52.2112 40.2818 51.4439 40.3365 50.6766 40.3365C49.6362 40.3365 48.8682 40.0054 48.319 39.3426C47.7713 38.6819 47.5532 37.7974 47.5532 36.6955C47.5532 35.5368 47.8263 34.6545 48.3755 34.0464C48.9776 33.3857 49.8543 32.9992 51.0606 32.8891L56.8706 32.3364V38.9014C56.4315 39.0662 55.8845 39.2879 55.1716 39.5074H55.1709ZM65.365 17.3323C64.3238 15.7338 62.7885 14.5751 60.7613 13.9137C58.7877 13.1962 56.3772 12.8644 53.5269 12.8644C51.9373 12.8644 50.2383 12.9745 48.4299 13.1962C46.6765 13.361 44.9217 13.6374 43.277 13.9137C41.6331 14.1887 40.2087 14.465 39.0574 14.7961L39.3863 21.8008C40.5376 21.6907 41.8526 21.5245 43.4422 21.4165C45.0304 21.305 46.62 21.1948 48.2647 21.0847C49.8543 20.9746 51.3352 20.9746 52.5959 20.9746C54.0203 20.9746 55.0622 21.2495 55.7737 21.8008C56.4866 22.3535 56.8706 23.2913 56.8706 24.6141V26.3241L49.5261 26.9315C46.9504 27.0416 44.813 27.4274 43.0046 28.0341C41.1947 28.6415 39.8254 29.6339 38.8936 31.069C37.9626 32.4479 37.4678 34.4328 37.4678 36.9697C37.4678 40.6114 38.3459 43.2584 40.1536 45.0231C41.907 46.7899 44.5935 47.6723 48.2103 47.6723C49.5797 47.6723 50.9512 47.5621 52.3213 47.2858C53.6363 47.0101 54.897 46.6784 55.9939 46.2926C57.1452 45.9076 58.0762 45.5765 58.7877 45.2455C59.0623 45.6866 59.4463 46.1278 59.8303 46.5143C61.638 48.3358 64.1593 49.4931 66.9553 49.4931V24.0642C66.9553 21.1956 66.4075 18.9329 65.3657 17.333L65.365 17.3323Z" fill="#2B4C00"/>
<path d="M102.028 27.3698C102.07 24.8106 102.542 22.9898 103.44 21.9074C104.34 20.8293 105.71 20.2859 107.551 20.2859C109.393 20.2859 110.731 20.8084 111.567 21.8433C112.395 22.8833 112.814 24.7257 112.814 27.3698H102.028ZM122.875 28.2968C122.875 22.9574 121.596 19.0524 119.026 16.581C116.463 14.1074 112.636 12.8746 107.551 12.8746C104.088 12.8746 101.214 13.5266 98.9333 14.8242C96.653 16.1283 94.9361 18.0945 93.7741 20.717C92.6121 23.3461 92.0293 26.6653 92.0293 30.6775C92.0293 32.4955 92.1344 34.1659 92.3468 35.6866C94.1245 36.5581 95.7656 37.7319 97.2057 39.1807L105.626 47.6558C106.101 47.6788 106.59 47.6896 107.092 47.6896C108.756 47.6896 110.51 47.6039 112.352 47.4255C114.194 47.2477 115.971 47.0375 117.685 46.8008C119.391 46.5582 120.815 46.3279 121.954 46.1063L121.757 39.2224C120.574 39.3081 119.15 39.393 117.486 39.4851C115.816 39.5722 114.141 39.647 112.454 39.7176C110.763 39.7831 109.238 39.8154 107.884 39.8154C105.775 39.8154 104.298 39.298 103.441 38.258C102.586 37.2246 102.135 35.6456 102.093 33.5282H122.351L122.875 28.2982L122.875 28.2968Z" fill="#3E7A00"/>
<path d="M141.951 39.2856C143.797 39.2856 145.179 38.9193 146.099 38.1924C147.019 37.4648 147.64 36.3932 147.972 34.9819C148.299 33.5706 148.464 31.8736 148.464 29.8865C148.464 27.7692 148.309 26.0779 148.004 24.8227C147.699 23.5618 147.169 22.6622 146.425 22.1081C145.681 21.5582 144.67 21.284 143.401 21.284C142.481 21.284 141.512 21.4129 140.505 21.677C139.499 21.9411 138.643 22.1887 137.941 22.4039V39.0222C138.508 39.0654 139.188 39.1194 139.981 39.1842C140.767 39.254 141.426 39.2864 141.95 39.2864L141.951 39.2856ZM141.822 47.6887C140.682 47.6887 139.28 47.624 137.61 47.4944C135.946 47.3598 134.249 47.2037 132.515 47.0317C130.781 46.8539 129.239 46.6761 127.88 46.4984V0.365509H137.941V14.5276C138.948 14.1771 140.243 13.8108 141.822 13.4344C143.401 13.063 144.825 12.8737 146.099 12.8737C149.209 12.8737 151.687 13.5258 153.528 14.8241C155.368 16.1274 156.686 18.0289 157.472 20.5176C158.264 23.012 158.661 26.0714 158.661 29.6864C158.661 34.1463 158.152 37.6858 157.146 40.309C156.134 42.9381 154.405 44.8229 151.949 45.9708C149.493 47.118 146.12 47.6887 141.822 47.6887Z" fill="#3E7A00"/>
<path d="M174.771 47.6896C171.918 47.6896 169.697 47.0649 168.096 45.8047C166.496 44.5496 165.367 42.6856 164.708 40.2127C164.05 37.7406 163.723 34.6315 163.723 30.8776V13.6022H173.786V30.4141C173.786 32.5365 173.892 34.212 174.112 35.4455C174.331 36.6848 174.771 37.552 175.428 38.0637C176.087 38.5697 177.029 38.823 178.254 38.823C179.394 38.823 180.491 38.6776 181.547 38.3926C182.596 38.1069 183.431 37.8111 184.046 37.4981V13.6022H194.108V46.8979H184.109V44.98C182.616 45.7723 181.16 46.4244 179.737 46.9303C178.307 47.4363 176.654 47.6896 174.77 47.6896H174.771Z" fill="#3E7A00"/>
<path d="M200.552 46.8972V13.6014H210.551V15.654C211.252 15.2121 212.087 14.781 213.05 14.3614C214.013 13.9462 215.031 13.5914 216.106 13.3057C217.182 13.0199 218.199 12.8746 219.168 12.8746C222.278 12.8746 224.702 13.4136 226.431 14.496C228.165 15.5792 229.391 17.3669 230.119 19.8563C230.841 22.35 231.2 25.6519 231.2 29.752V46.8979H221.137V30.3494C221.137 28.2759 221.009 26.6005 220.747 25.318C220.479 24.0413 220.019 23.115 219.361 22.5386C218.708 21.9678 217.761 21.6764 216.535 21.6764C215.834 21.6764 215.111 21.7462 214.368 21.8757C213.618 22.0103 212.918 22.1881 212.259 22.404C211.601 22.63 211.055 22.8451 210.616 23.0661V46.8972H200.554H200.552Z" fill="#3E7A00"/>
<path d="M17.41 39.3505C18.9889 39.3505 20.2145 38.99 21.0926 38.2573C21.9707 37.5297 22.5914 36.4746 22.9654 35.0849C23.3401 33.6952 23.5274 31.9823 23.5274 29.9514C23.5274 26.6437 23.0884 24.3702 22.211 23.1366C21.3329 21.8973 20.0379 21.2841 18.3303 21.2841C17.7575 21.2841 17.1311 21.359 16.4575 21.5159C15.7725 21.667 15.1303 21.8549 14.5146 22.0758C13.899 22.2967 13.3748 22.5177 12.9358 22.7386V38.8878C13.3748 38.9799 14.0219 39.0763 14.8786 39.1843C15.7295 39.2973 16.5755 39.3512 17.41 39.3512V39.3505ZM2.87323 60.6663V13.6014H12.807L12.8714 15.654C13.4871 15.2553 14.2415 14.8408 15.1403 14.3989C16.0399 13.9577 17.0131 13.5906 18.0686 13.3057C19.1169 13.0199 20.1501 12.8746 21.157 12.8746C25.6312 12.8746 28.8318 14.3291 30.759 17.2438C32.6911 20.1585 33.655 24.4839 33.655 30.2155C33.655 34.2774 33.1838 37.601 32.242 40.181C31.2946 42.7611 29.775 44.6575 27.6713 45.8752C25.5625 47.0872 22.758 47.6903 19.252 47.6903C18.198 47.6903 17.0682 47.5931 15.864 47.3945C14.6598 47.1952 13.6801 47.0332 12.9365 46.8986V60.667H2.87394L2.87323 60.6663Z" fill="#2B4C00"/>
<path fill-rule="evenodd" clip-rule="evenodd" d="M73.142 39.6024C75.5826 39.6722 78.001 39.999 80.3443 40.7719C83.1173 41.7147 85.4577 43.4319 87.7288 45.1692C92.7322 49.1383 96.3726 51.0649 102.902 49.6788L94.0801 40.7993C91.0053 37.7053 86.9766 36.158 82.9464 36.158C79.4754 36.158 76.003 37.3059 73.142 39.6024Z" fill="url(#paint3_linear_2488_979)"/>
<path d="M87.5565 8.29941V8.30085C79.7007 9.67042 73.9937 16.8292 74.5564 25.0092L75.333 36.3069C74.2003 36.5681 73.0197 36.7049 71.8084 36.7049V24.1492C71.8084 15.3948 78.859 8.29941 87.5565 8.29941Z" fill="#2B4C00"/>
<path fill-rule="evenodd" clip-rule="evenodd" d="M87.5573 20.8566V8.29941C83.836 10.696 81.5213 13.7892 80.6489 18.1707C80.0712 20.9156 79.9239 23.7289 79.2839 26.4953C78.9549 27.9016 78.5345 29.3 77.8644 30.6494C76.7475 32.8646 75.2694 34.8157 73.5926 36.6019C81.4498 35.7124 87.5573 29.0006 87.5573 20.8558V20.8566Z" fill="#4C9B00"/>
<path d="M104.828 27.5519C104.87 24.9927 105.342 23.1718 106.24 22.0894C107.14 21.0113 108.51 20.468 110.351 20.468C112.193 20.468 113.531 20.9905 114.366 22.0254C115.194 23.0653 115.613 24.9077 115.613 27.5519H104.828ZM125.674 28.4788C125.674 23.1395 124.396 19.2344 121.826 16.763C119.262 14.2894 115.435 13.0566 110.35 13.0566C106.887 13.0566 104.014 13.7086 101.733 15.0062C99.4525 16.3103 97.7356 18.2765 96.5736 20.8991C95.4116 23.5281 94.8289 26.8473 94.8289 30.8596C94.8289 32.6775 94.934 34.3479 95.1463 35.8686C96.924 36.7402 98.5651 37.9147 100.005 39.3627L108.426 47.8378C108.901 47.8608 109.389 47.8716 109.891 47.8716C111.555 47.8716 113.31 47.786 115.152 47.6075C116.994 47.4297 118.77 47.2196 120.484 46.9828C122.19 46.7403 123.615 46.51 124.754 46.2883L124.557 39.4045C123.374 39.4901 121.949 39.575 120.285 39.6671C118.615 39.7542 116.94 39.8291 115.253 39.8996C113.562 39.9651 112.037 39.9968 110.683 39.9968C108.574 39.9968 107.097 39.4793 106.24 38.4394C105.385 37.4059 104.934 35.8269 104.891 33.7096H125.149L125.674 28.4796V28.4788Z" fill="#3E7A00"/>
<path d="M144.75 39.4677C146.597 39.4677 147.978 39.1014 148.899 38.3745C149.819 37.6469 150.439 36.5752 150.771 35.1639C151.098 33.7526 151.264 32.0556 151.264 30.0685C151.264 27.9512 151.109 26.2599 150.803 25.0048C150.498 23.7439 149.968 22.8443 149.225 22.2901C148.48 21.7403 147.469 21.4661 146.201 21.4661C145.28 21.4661 144.311 21.5949 143.304 21.859C142.298 22.1231 141.442 22.3707 140.741 22.5859V39.2043C141.308 39.2475 141.988 39.3014 142.78 39.3662C143.567 39.436 144.226 39.4684 144.75 39.4684L144.75 39.4677ZM144.622 47.8708C143.482 47.8708 142.08 47.806 140.41 47.6765C138.745 47.5419 137.048 47.3857 135.314 47.2137C133.58 47.0359 132.038 46.8582 130.679 46.6804V0.547546H140.741V14.7096C141.748 14.3591 143.043 13.9928 144.622 13.6164C146.201 13.2443 147.624 13.0558 148.899 13.0558C152.008 13.0558 154.486 13.7078 156.327 15.0061C158.168 16.3095 159.485 18.2109 160.272 20.6996C161.064 23.194 161.46 26.2534 161.46 29.8685C161.46 34.3284 160.952 37.8678 159.946 40.4911C158.934 43.1201 157.205 45.005 154.749 46.1529C152.292 47.3001 148.92 47.8708 144.622 47.8708Z" fill="#3E7A00"/>
<path d="M203.353 47.0793V13.7836H213.351V15.8354C214.052 15.3935 214.887 14.9624 215.85 14.5428C216.813 14.1283 217.831 13.7728 218.906 13.487C219.982 13.2013 220.999 13.056 221.968 13.056C225.078 13.056 227.502 13.595 229.231 14.6774C230.965 15.7606 232.191 17.5483 232.919 20.0377C233.642 22.5314 234 25.8333 234 29.9334V47.0793H223.937V30.5308C223.937 28.4573 223.809 26.7819 223.547 25.4994C223.28 24.2227 222.819 23.2964 222.161 22.72C221.508 22.1492 220.561 21.8578 219.335 21.8578C218.634 21.8578 217.912 21.9276 217.168 22.0571C216.418 22.1917 215.718 22.3695 215.059 22.5854C214.401 22.8114 213.855 23.0273 213.417 23.2475V47.0786H203.354L203.353 47.0793Z" fill="#3E7A00"/>
<path d="M52.2977 39.6887C51.5847 39.9097 50.8718 40.0752 50.106 40.2407C49.338 40.4624 48.5707 40.5171 47.8034 40.5171C46.763 40.5171 45.995 40.186 45.4465 39.5232C44.8988 38.8618 44.6807 37.978 44.6807 36.8762C44.6807 35.7168 44.9532 34.8352 45.503 34.227C46.1044 33.5663 46.9818 33.1799 48.1881 33.0698L53.9981 32.517V39.082C53.5591 39.2469 53.012 39.4685 52.2991 39.688L52.2977 39.6887ZM62.4918 17.5136C61.4506 15.9152 59.9154 14.7565 57.8881 14.0951C55.9145 13.3776 53.504 13.0458 50.6537 13.0458C49.0641 13.0458 47.3651 13.1559 45.5567 13.3776C43.8033 13.5424 42.0485 13.8188 40.4039 14.0951C38.7592 14.3693 37.3348 14.6464 36.1835 14.9775L36.5131 21.9822C37.6644 21.8721 38.9794 21.7058 40.569 21.5979C42.1579 21.4863 43.7468 21.3762 45.3915 21.2661C46.9811 21.156 48.462 21.156 49.7227 21.156C51.1471 21.156 52.189 21.4309 52.9005 21.9822C53.6134 22.5349 53.9974 23.4727 53.9974 24.7955V26.5055L46.6522 27.1129C44.0765 27.223 41.9391 27.6095 40.1307 28.2154C38.3208 28.8229 36.9515 29.8153 36.0197 31.2504C35.088 32.6293 34.5939 34.6142 34.5939 37.1511C34.5939 40.7928 35.472 43.4398 37.2804 45.2044C39.0338 46.9713 41.7203 47.8536 45.3371 47.8536C46.7065 47.8536 48.078 47.7435 49.4481 47.4679C50.7631 47.1915 52.0238 46.8597 53.1207 46.474C54.272 46.089 55.203 45.7579 55.9145 45.4268C56.1891 45.868 56.5731 46.3092 56.9571 46.6957C58.7648 48.5172 61.2862 49.6744 64.0814 49.6744V24.2456C64.0814 21.3769 63.5336 19.1142 62.4918 17.5144V17.5136Z" fill="#2B4C00"/>
<path d="M14.5367 39.5326C16.1156 39.5326 17.3413 39.1714 18.2194 38.4394C19.0975 37.7118 19.7182 36.656 20.0921 35.267C20.4668 33.8773 20.6542 32.1645 20.6542 30.1335C20.6542 26.8258 20.2151 24.5523 19.3377 23.3187C18.4596 22.0794 17.1646 21.4655 15.457 21.4655C14.8843 21.4655 14.2579 21.5411 13.5843 21.6973C12.8992 21.8484 12.2571 22.037 11.6414 22.2572C11.0257 22.4781 10.5016 22.6984 10.0625 22.9193V39.0692C10.5016 39.1606 11.1487 39.2577 12.0054 39.3657C12.8563 39.4787 13.7022 39.5326 14.5367 39.5326ZM0 60.8484V13.7836H9.93381L9.99817 15.8354C10.6138 15.4367 11.3682 15.0221 12.2671 14.5803C13.1667 14.1384 14.1399 13.772 15.1946 13.487C16.2429 13.2013 17.2762 13.056 18.283 13.056C22.7572 13.056 25.9579 14.5104 27.885 17.4252C29.8172 20.3399 30.7811 24.6653 30.7811 30.3969C30.7811 34.4588 30.3098 37.7824 29.3681 40.3624C28.4206 42.9425 26.9011 44.8389 24.7973 46.0566C22.6886 47.2686 19.8841 47.8717 16.3781 47.8717C15.324 47.8717 14.1942 47.7745 12.99 47.5752C11.7859 47.3765 10.8062 47.2146 10.0625 47.08V60.8484H0Z" fill="#2B4C00"/>
<defs>
<linearGradient id="paint0_linear_2488_979" x1="3257.99" y1="1393.32" x2="1728.44" y2="-36.174" gradientUnits="userSpaceOnUse">
<stop stop-color="#3E7A00"/>
<stop offset="1" stop-color="#2B4C00"/>
</linearGradient>
<linearGradient id="paint1_linear_2488_979" x1="2718.06" y1="946.56" x2="1904.73" y2="-173.412" gradientUnits="userSpaceOnUse">
<stop stop-color="#4C9B00"/>
<stop offset="1" stop-color="#3E7A00"/>
</linearGradient>
<linearGradient id="paint2_linear_2488_979" x1="3257.99" y1="1393.32" x2="1728.44" y2="-36.174" gradientUnits="userSpaceOnUse">
<stop stop-color="#3E7A00"/>
<stop offset="1" stop-color="#2B4C00"/>
</linearGradient>
<linearGradient id="paint3_linear_2488_979" x1="2718.06" y1="946.56" x2="1904.73" y2="-173.412" gradientUnits="userSpaceOnUse">
<stop stop-color="#4C9B00"/>
<stop offset="1" stop-color="#3E7A00"/>
</linearGradient>
</defs>
</svg>
