<svg width="100" height="27" viewBox="0 0 100 27" fill="none" xmlns="http://www.w3.org/2000/svg">
<path fill-rule="evenodd" clip-rule="evenodd" d="M37.4177 8.91275V3.54706C33.7008 3.54706 30.6877 6.5796 30.6877 10.3204V15.6864C34.4046 15.6864 37.4177 12.6539 37.4177 8.91306V8.91275Z" fill="white"/>
<path fill-rule="evenodd" clip-rule="evenodd" d="M30.6873 17.4358L34.4573 21.2302C37.0853 23.8752 41.3464 23.8752 43.9748 21.2302L40.2051 17.4358C38.8907 16.1133 37.1685 15.4521 35.4462 15.4521C33.7239 15.4521 32.0016 16.1133 30.6873 17.4358Z" fill="white"/>
<path fill-rule="evenodd" clip-rule="evenodd" d="M30.6873 10.3202V14.9948C31.619 14.1343 32.4829 13.1498 32.9682 11.9706C33.5399 10.5985 33.6808 9.10196 34.09 7.66935C34.6119 5.77847 35.7132 4.47565 37.4172 3.54651C33.7 3.54651 30.6873 6.57905 30.6873 10.3199V10.3202Z" fill="white"/>
<path d="M23.5774 16.8835C23.2727 16.9783 22.968 17.0487 22.6408 17.1198C22.3126 17.2145 21.9847 17.2379 21.6568 17.2379C21.2121 17.2379 20.8839 17.0964 20.6492 16.8131C20.4152 16.5308 20.322 16.1528 20.322 15.6819C20.322 15.1867 20.4387 14.8097 20.6734 14.5498C20.9307 14.2674 21.3053 14.1023 21.8209 14.0552L24.3038 13.819V16.6246C24.1161 16.695 23.8824 16.7897 23.5777 16.8835H23.5774ZM27.9338 7.40701C27.4889 6.72392 26.8328 6.22875 25.9665 5.9461C25.123 5.63947 24.0929 5.49768 22.8748 5.49768C22.1955 5.49768 21.4694 5.54474 20.6966 5.63947C19.9473 5.7099 19.1974 5.828 18.4946 5.9461C17.792 6.06359 17.1833 6.18169 16.6913 6.32317L16.8319 9.31665C17.3238 9.26959 17.8858 9.19855 18.5651 9.15241C19.2439 9.10474 19.9232 9.05769 20.626 9.01063C21.3053 8.96357 21.9382 8.96357 22.477 8.96357C23.0857 8.96357 23.5309 9.08106 23.835 9.31665C24.1397 9.55286 24.3038 9.95361 24.3038 10.5189V11.2497L21.1651 11.5092C20.0644 11.5563 19.151 11.7212 18.3781 11.9804C17.6047 12.24 17.0195 12.6641 16.6213 13.2774C16.2234 13.8667 16.012 14.7149 16.012 15.7991C16.012 17.3553 16.3872 18.4865 17.1598 19.2407C17.909 19.9957 19.0571 20.3728 20.6028 20.3728C21.188 20.3728 21.7741 20.3258 22.3596 20.2077C22.9216 20.0899 23.4603 19.9481 23.9291 19.7832C24.4211 19.6187 24.819 19.4772 25.123 19.3357C25.2404 19.5243 25.4045 19.7128 25.5686 19.8779C26.3411 20.6564 27.4186 21.1509 28.6135 21.1509V10.2839C28.6135 9.05799 28.3794 8.09103 27.9341 7.40732L27.9338 7.40701Z" fill="white"/>
<path d="M43.6016 11.6965C43.6197 10.6028 43.8214 9.82465 44.2052 9.36208C44.5896 8.90135 45.1751 8.66914 45.962 8.66914C46.7492 8.66914 47.3209 8.89243 47.6779 9.3347C48.0317 9.77913 48.2108 10.5665 48.2108 11.6965H43.6016ZM52.5104 12.0926C52.5104 9.81081 51.964 8.14199 50.8658 7.08583C49.7702 6.02874 48.1347 5.50189 45.9617 5.50189C44.4817 5.50189 43.2539 5.78054 42.2791 6.33507C41.3045 6.89237 40.5708 7.73262 40.0742 8.85337C39.5777 9.97689 39.3286 11.3954 39.3286 13.11C39.3286 13.8869 39.3735 14.6007 39.4643 15.2506C40.224 15.6231 40.9253 16.1247 41.5408 16.7438L45.1394 20.3656C45.3423 20.3755 45.551 20.3801 45.7655 20.3801C46.4766 20.3801 47.2265 20.3435 48.0137 20.2672C48.8009 20.1913 49.56 20.1015 50.2925 20.0003C51.0216 19.8966 51.6303 19.7982 52.1171 19.7035L52.0328 16.7617C51.5273 16.7983 50.9186 16.8346 50.2075 16.8739C49.494 16.9111 48.778 16.9431 48.0571 16.9733C47.3344 17.0012 46.6829 17.0151 46.1041 17.0151C45.2029 17.0151 44.5716 16.794 44.2055 16.3495C43.84 15.9079 43.6475 15.2331 43.6291 14.3282H52.2864L52.5107 12.0932L52.5104 12.0926Z" fill="white"/>
<path d="M60.6628 16.7888C61.4518 16.7888 62.0422 16.6322 62.4355 16.3216C62.8288 16.0107 63.094 15.5527 63.2358 14.9496C63.3755 14.3464 63.4464 13.6212 63.4464 12.772C63.4464 11.8672 63.38 11.1444 63.2496 10.6081C63.1194 10.0692 62.8926 9.68476 62.5748 9.44794C62.2567 9.21297 61.8246 9.09579 61.2825 9.09579C60.8892 9.09579 60.4751 9.15084 60.0449 9.26371C59.6149 9.37659 59.2491 9.48239 58.9493 9.57435V16.6762C59.1917 16.6947 59.4823 16.7177 59.8209 16.7454C60.157 16.7752 60.4385 16.7891 60.6625 16.7891L60.6628 16.7888ZM60.6078 20.3798C60.1206 20.3798 59.5214 20.3522 58.8078 20.2968C58.0964 20.2393 57.3713 20.1726 56.6302 20.099C55.8892 20.0231 55.2303 19.9471 54.6494 19.8711V0.15625H58.9493V6.20841C59.3796 6.05863 59.933 5.90208 60.6078 5.74123C61.2825 5.58253 61.8909 5.50164 62.4355 5.50164C63.7645 5.50164 64.8233 5.78029 65.6102 6.33513C66.3968 6.89212 66.9597 7.70469 67.2958 8.76823C67.6344 9.83424 67.8037 11.1417 67.8037 12.6865C67.8037 14.5925 67.5865 16.1051 67.1565 17.2261C66.7241 18.3496 65.9852 19.1551 64.9355 19.6457C63.8858 20.136 62.4446 20.3798 60.6078 20.3798Z" fill="white"/>
<path d="M74.6883 20.3801C73.4693 20.3801 72.5202 20.1132 71.8359 19.5746C71.152 19.0382 70.6695 18.2417 70.3881 17.1849C70.1069 16.1284 69.9673 14.7998 69.9673 13.1955V5.81287H74.2675V12.9975C74.2675 13.9045 74.313 14.6205 74.4068 15.1476C74.5007 15.6772 74.6883 16.0478 74.9694 16.2665C75.2509 16.4827 75.6536 16.591 76.1771 16.591C76.6642 16.591 77.133 16.5289 77.584 16.4071C78.0323 16.285 78.3893 16.1586 78.6521 16.0248V5.81287H82.952V20.0418H78.6793V19.2222C78.0412 19.5608 77.419 19.8394 76.8106 20.0557C76.1997 20.2719 75.4932 20.3801 74.688 20.3801H74.6883Z" fill="white"/>
<path d="M85.7063 20.0415V5.81253H89.979V6.68969C90.2788 6.50085 90.6354 6.31662 91.047 6.13731C91.4587 5.95985 91.8935 5.80822 92.3531 5.68612C92.813 5.56402 93.2476 5.50189 93.6617 5.50189C94.9907 5.50189 96.0266 5.73225 96.7655 6.19482C97.5066 6.6577 98.0303 7.42168 98.3414 8.48553C98.6501 9.55123 98.8035 10.9623 98.8035 12.7145V20.0418H94.5032V12.9698C94.5032 12.0837 94.4485 11.3677 94.3364 10.8196C94.2221 10.274 94.0253 9.87816 93.7442 9.63181C93.4649 9.38791 93.0603 9.26335 92.5365 9.26335C92.2367 9.26335 91.9281 9.29318 91.6102 9.34854C91.29 9.40606 90.9905 9.48202 90.7091 9.57429C90.4279 9.67087 90.1945 9.76283 90.0071 9.85725V20.0415H85.7069H85.7063Z" fill="white"/>
<path d="M7.44031 16.8164C8.11505 16.8164 8.63882 16.6623 9.01408 16.3492C9.38934 16.0383 9.65459 15.5874 9.81442 14.9935C9.97454 14.3996 10.0546 13.6676 10.0546 12.7997C10.0546 11.3861 9.86698 10.4145 9.49202 9.88739C9.11676 9.35777 8.56334 9.09573 7.8336 9.09573C7.58882 9.09573 7.32113 9.12772 7.03327 9.19476C6.74051 9.25935 6.4661 9.33962 6.20299 9.43405C5.93988 9.52847 5.71588 9.62289 5.52825 9.71731V16.6186C5.71588 16.658 5.99244 16.6992 6.35853 16.7454C6.72218 16.7936 7.08369 16.8167 7.44031 16.8167V16.8164ZM1.22803 25.9257V5.81253H5.47324L5.50075 6.68969C5.76386 6.5193 6.08625 6.34215 6.47037 6.1533C6.8548 5.96477 7.27071 5.80791 7.72175 5.68612C8.16975 5.56402 8.61132 5.50189 9.04159 5.50189C10.9536 5.50189 12.3215 6.12347 13.145 7.36909C13.9707 8.61471 14.3826 10.4631 14.3826 12.9125C14.3826 14.6484 14.1813 16.0687 13.7788 17.1713C13.3739 18.2739 12.7245 19.0844 11.8255 19.6047C10.9243 20.1227 9.7258 20.3804 8.2275 20.3804C7.77707 20.3804 7.29424 20.3389 6.77963 20.254C6.26502 20.1688 5.84637 20.0996 5.52856 20.0421V25.926H1.22833L1.22803 25.9257Z" fill="white"/>
<path fill-rule="evenodd" clip-rule="evenodd" d="M31.1731 17.9243L34.4579 21.2303C37.0859 23.8753 41.3467 23.8753 43.9754 21.2303C42.1183 21.786 40.4223 21.6482 38.726 20.6828C37.3389 19.9071 36.1099 18.8657 34.6128 18.3223C33.7217 18.0129 32.767 17.9099 31.8179 17.9099C31.6024 17.9099 31.3873 17.9151 31.1734 17.9246L31.1731 17.9243Z" fill="white"/>
<path fill-rule="evenodd" clip-rule="evenodd" d="M31.2573 16.9241C32.3003 16.9539 33.3338 17.0935 34.3352 17.4239C35.5203 17.8268 36.5205 18.5606 37.491 19.303C39.6292 20.9992 41.1849 21.8226 43.9753 21.2302L40.2052 17.4355C38.8912 16.1133 37.1695 15.4521 35.4472 15.4521C33.9639 15.4521 32.48 15.9426 31.2573 16.9241Z" fill="white"/>
<path d="M43.9751 21.2303L43.9745 21.2309L40.6436 18.2955C38.0311 15.9938 34.148 16.0897 31.6523 18.4072L30.6873 17.4356C33.3159 14.7906 37.5767 14.7906 40.2048 17.4356L43.9751 21.2303Z" fill="white"/>
<path d="M37.4172 3.54675V3.54737C34.06 4.13265 31.6211 7.19195 31.8616 10.6877L32.1935 15.5158C31.7094 15.6274 31.2049 15.6858 30.6873 15.6858V10.3201C30.6873 6.57899 33.7003 3.54675 37.4172 3.54675Z" fill="white"/>
<path fill-rule="evenodd" clip-rule="evenodd" d="M37.4177 8.91275V3.54706C33.7008 3.54706 30.6877 6.5796 30.6877 10.3204V15.6864C34.4046 15.6864 37.4177 12.6536 37.4177 8.91275Z" fill="white"/>
<path fill-rule="evenodd" clip-rule="evenodd" d="M30.6873 17.4358L34.4573 21.2302C37.0853 23.8752 41.3464 23.8752 43.9748 21.2302L40.2051 17.4358C38.8907 16.1133 37.1685 15.4521 35.4462 15.4521C33.7239 15.4521 32.0016 16.1133 30.6873 17.4358Z" fill="white"/>
<path fill-rule="evenodd" clip-rule="evenodd" d="M30.6873 10.3202V14.9948C31.619 14.1343 32.4829 13.1498 32.9682 11.9706C33.5399 10.5985 33.6808 9.10196 34.09 7.66935C34.6119 5.77847 35.7132 4.47565 37.4172 3.54651C33.7 3.54651 30.6873 6.57905 30.6873 10.3199V10.3202Z" fill="white"/>
<path fill-rule="evenodd" clip-rule="evenodd" d="M37.4175 8.91306V3.54675C35.8272 4.57093 34.8381 5.89282 34.4652 7.76524C34.2183 8.93828 34.1554 10.1405 33.8819 11.3228C33.7413 11.9238 33.5616 12.5213 33.2753 13.098C32.798 14.0447 32.1663 14.8785 31.4497 15.6419C34.8075 15.2617 37.4175 12.3934 37.4175 8.91275V8.91306Z" fill="white"/>
<path d="M23.5774 16.8835C23.2727 16.9783 22.968 17.0487 22.6408 17.1198C22.3126 17.2145 21.9847 17.2379 21.6568 17.2379C21.2121 17.2379 20.8839 17.0964 20.6492 16.8131C20.4152 16.5308 20.322 16.1528 20.322 15.6819C20.322 15.1867 20.4387 14.8097 20.6734 14.5498C20.9307 14.2674 21.3053 14.1023 21.8209 14.0552L24.3038 13.819V16.6246C24.1161 16.695 23.8824 16.7897 23.5777 16.8835H23.5774ZM27.9338 7.40701C27.4889 6.72392 26.8328 6.22875 25.9665 5.9461C25.123 5.63947 24.0929 5.49768 22.8748 5.49768C22.1955 5.49768 21.4694 5.54474 20.6966 5.63947C19.9473 5.7099 19.1974 5.828 18.4946 5.9461C17.792 6.06359 17.1833 6.18169 16.6913 6.32317L16.8319 9.31665C17.3238 9.26959 17.8858 9.19855 18.5651 9.15241C19.2439 9.10474 19.9232 9.05769 20.626 9.01063C21.3053 8.96357 21.9382 8.96357 22.477 8.96357C23.0857 8.96357 23.5309 9.08106 23.835 9.31665C24.1397 9.55286 24.3038 9.95361 24.3038 10.5189V11.2497L21.1651 11.5092C20.0644 11.5563 19.151 11.7212 18.3781 11.9804C17.6047 12.24 17.0195 12.6641 16.6213 13.2774C16.2234 13.8667 16.012 14.7149 16.012 15.7991C16.012 17.3553 16.3872 18.4865 17.1598 19.2407C17.909 19.9957 19.0571 20.3728 20.6028 20.3728C21.188 20.3728 21.7741 20.3258 22.3596 20.2077C22.9216 20.0899 23.4603 19.9481 23.9291 19.7832C24.4211 19.6187 24.819 19.4772 25.123 19.3357C25.2404 19.5243 25.4045 19.7128 25.5686 19.8779C26.3411 20.6564 27.4186 21.1509 28.6135 21.1509V10.2839C28.6135 9.05799 28.3794 8.09103 27.9341 7.40732L27.9338 7.40701Z" fill="white"/>
<path d="M43.6016 11.6965C43.6197 10.6028 43.8214 9.82465 44.2052 9.36208C44.5896 8.90135 45.1751 8.66914 45.962 8.66914C46.7492 8.66914 47.3209 8.89243 47.6779 9.3347C48.0317 9.77913 48.2108 10.5665 48.2108 11.6965H43.6016ZM52.5104 12.0926C52.5104 9.81081 51.964 8.14199 50.8658 7.08583C49.7702 6.02874 48.1347 5.50189 45.9617 5.50189C44.4817 5.50189 43.2539 5.78054 42.2791 6.33507C41.3045 6.89237 40.5708 7.73262 40.0742 8.85337C39.5777 9.97689 39.3286 11.3954 39.3286 13.11C39.3286 13.8869 39.3735 14.6007 39.4643 15.2506C40.224 15.6231 40.9253 16.1247 41.5408 16.7438L45.1394 20.3656C45.3423 20.3755 45.551 20.3801 45.7655 20.3801C46.4766 20.3801 47.2265 20.3435 48.0137 20.2672C48.8009 20.1913 49.56 20.1015 50.2925 20.0003C51.0216 19.8966 51.6303 19.7982 52.1171 19.7035L52.0328 16.7617C51.5273 16.7983 50.9186 16.8346 50.2075 16.8739C49.494 16.9111 48.778 16.9431 48.0571 16.9733C47.3344 17.0012 46.6829 17.0151 46.1041 17.0151C45.2029 17.0151 44.5716 16.794 44.2055 16.3495C43.84 15.9079 43.6475 15.2331 43.6291 14.3282H52.2864L52.5107 12.0932L52.5104 12.0926Z" fill="white"/>
<path d="M60.6628 16.7888C61.4518 16.7888 62.0422 16.6322 62.4355 16.3216C62.8288 16.0107 63.094 15.5527 63.2358 14.9496C63.3755 14.3464 63.4464 13.6212 63.4464 12.772C63.4464 11.8672 63.38 11.1444 63.2496 10.6081C63.1194 10.0692 62.8926 9.68476 62.5748 9.44794C62.2567 9.21297 61.8246 9.09579 61.2825 9.09579C60.8892 9.09579 60.4751 9.15084 60.0449 9.26371C59.6149 9.37659 59.2491 9.48239 58.9493 9.57435V16.6762C59.1917 16.6947 59.4823 16.7177 59.8209 16.7454C60.157 16.7752 60.4385 16.7891 60.6625 16.7891L60.6628 16.7888ZM60.6078 20.3798C60.1206 20.3798 59.5214 20.3522 58.8078 20.2968C58.0964 20.2393 57.3713 20.1726 56.6302 20.099C55.8892 20.0231 55.2303 19.9471 54.6494 19.8711V0.15625H58.9493V6.20841C59.3796 6.05863 59.933 5.90208 60.6078 5.74123C61.2825 5.58253 61.8909 5.50164 62.4355 5.50164C63.7645 5.50164 64.8233 5.78029 65.6102 6.33513C66.3968 6.89212 66.9597 7.70469 67.2958 8.76823C67.6344 9.83424 67.8037 11.1417 67.8037 12.6865C67.8037 14.5925 67.5865 16.1051 67.1565 17.2261C66.7241 18.3496 65.9852 19.1551 64.9355 19.6457C63.8858 20.136 62.4446 20.3798 60.6078 20.3798Z" fill="white"/>
<path d="M74.6883 20.3801C73.4693 20.3801 72.5202 20.1132 71.8359 19.5746C71.152 19.0382 70.6695 18.2417 70.3881 17.1849C70.1069 16.1284 69.9673 14.7998 69.9673 13.1955V5.81287H74.2675V12.9975C74.2675 13.9045 74.313 14.6205 74.4068 15.1476C74.5007 15.6772 74.6883 16.0478 74.9694 16.2665C75.2509 16.4827 75.6536 16.591 76.1771 16.591C76.6642 16.591 77.133 16.5289 77.584 16.4071C78.0323 16.285 78.3893 16.1586 78.6521 16.0248V5.81287H82.952V20.0418H78.6793V19.2222C78.0412 19.5608 77.419 19.8394 76.8106 20.0557C76.1997 20.2719 75.4932 20.3801 74.688 20.3801H74.6883Z" fill="white"/>
<path d="M85.7063 20.0415V5.81253H89.979V6.68969C90.2788 6.50085 90.6354 6.31662 91.047 6.13731C91.4587 5.95985 91.8935 5.80822 92.3531 5.68612C92.813 5.56402 93.2476 5.50189 93.6617 5.50189C94.9907 5.50189 96.0266 5.73225 96.7655 6.19482C97.5066 6.6577 98.0303 7.42168 98.3414 8.48553C98.6501 9.55123 98.8035 10.9623 98.8035 12.7145V20.0418H94.5032V12.9698C94.5032 12.0837 94.4485 11.3677 94.3364 10.8196C94.2221 10.274 94.0253 9.87816 93.7442 9.63181C93.4649 9.38791 93.0603 9.26335 92.5365 9.26335C92.2367 9.26335 91.9281 9.29318 91.6102 9.34854C91.29 9.40606 90.9905 9.48202 90.7091 9.57429C90.4279 9.67087 90.1945 9.76283 90.0071 9.85725V20.0415H85.7069H85.7063Z" fill="white"/>
<path d="M7.44031 16.8164C8.11505 16.8164 8.63882 16.6623 9.01408 16.3492C9.38934 16.0383 9.65459 15.5874 9.81442 14.9935C9.97454 14.3996 10.0546 13.6676 10.0546 12.7997C10.0546 11.3861 9.86698 10.4145 9.49202 9.88739C9.11676 9.35777 8.56334 9.09573 7.8336 9.09573C7.58882 9.09573 7.32113 9.12772 7.03327 9.19476C6.74051 9.25935 6.4661 9.33962 6.20299 9.43405C5.93988 9.52847 5.71588 9.62289 5.52825 9.71731V16.6186C5.71588 16.658 5.99244 16.6992 6.35853 16.7454C6.72218 16.7936 7.08369 16.8167 7.44031 16.8167V16.8164ZM1.22803 25.9257V5.81253H5.47324L5.50075 6.68969C5.76386 6.5193 6.08625 6.34215 6.47037 6.1533C6.8548 5.96477 7.27071 5.80791 7.72175 5.68612C8.16975 5.56402 8.61132 5.50189 9.04159 5.50189C10.9536 5.50189 12.3215 6.12347 13.145 7.36909C13.9707 8.61471 14.3826 10.4631 14.3826 12.9125C14.3826 14.6484 14.1813 16.0687 13.7788 17.1713C13.3739 18.2739 12.7245 19.0844 11.8255 19.6047C10.9243 20.1227 9.7258 20.3804 8.2275 20.3804C7.77707 20.3804 7.29424 20.3389 6.77963 20.254C6.26502 20.1688 5.84637 20.0996 5.52856 20.0421V25.926H1.22833L1.22803 25.9257Z" fill="white"/>
<path fill-rule="evenodd" clip-rule="evenodd" d="M31.1731 17.9243L34.4579 21.2303C37.0859 23.8753 41.3467 23.8753 43.9754 21.2303C42.1183 21.786 40.4223 21.6482 38.726 20.6828C37.3389 19.9071 36.1099 18.8657 34.6128 18.3223C33.7217 18.0129 32.767 17.9099 31.8179 17.9099C31.6024 17.9099 31.3873 17.9151 31.1734 17.9246L31.1731 17.9243Z" fill="white"/>
<path fill-rule="evenodd" clip-rule="evenodd" d="M31.2573 16.9241C32.3003 16.9539 33.3338 17.0935 34.3352 17.4239C35.5203 17.8268 36.5205 18.5606 37.491 19.303C39.6292 20.9992 41.1849 21.8226 43.9753 21.2302L40.2052 17.4355C38.8912 16.1133 37.1695 15.4521 35.4472 15.4521C33.9639 15.4521 32.48 15.9426 31.2573 16.9241Z" fill="white"/>
<path d="M37.4172 3.54675V3.54737C34.06 4.13265 31.6211 7.19195 31.8616 10.6877L32.1935 15.5158C31.7094 15.6274 31.2049 15.6858 30.6873 15.6858V10.3201C30.6873 6.57899 33.7003 3.54675 37.4172 3.54675Z" fill="white"/>
<path fill-rule="evenodd" clip-rule="evenodd" d="M37.4175 8.91306V3.54675C35.8272 4.57093 34.8381 5.89282 34.4652 7.76524C34.2183 8.93828 34.1554 10.1405 33.8819 11.3228C33.7413 11.9238 33.5616 12.5213 33.2753 13.098C32.798 14.0447 32.1663 14.8785 31.4497 15.6419C34.8075 15.2617 37.4175 12.3934 37.4175 8.91275V8.91306Z" fill="white"/>
<path d="M44.7982 11.7743C44.8162 10.6806 45.0179 9.90247 45.4017 9.4399C45.7861 8.97917 46.3716 8.74696 47.1585 8.74696C47.9457 8.74696 48.5175 8.97025 48.8744 9.41252C49.2283 9.85695 49.4073 10.6443 49.4073 11.7743H44.7982ZM53.707 12.1704C53.707 9.88863 53.1606 8.21981 52.0623 7.16365C50.9668 6.10656 49.3312 5.57971 47.1582 5.57971C45.6783 5.57971 44.4504 5.85836 43.4756 6.41289C42.5011 6.97019 41.7674 7.81044 41.2708 8.93119C40.7742 10.0547 40.5251 11.4732 40.5251 13.1878C40.5251 13.9647 40.5701 14.6786 40.6608 15.3284C41.4205 15.7009 42.1218 16.2028 42.7373 16.8216L46.3359 20.4435C46.5388 20.4533 46.7475 20.4579 46.962 20.4579C47.6731 20.4579 48.423 20.4213 49.2102 20.345C49.9974 20.2691 50.7565 20.1793 51.489 20.0781C52.2181 19.9744 52.8269 19.876 53.3137 19.7813L53.2293 16.8395C52.7239 16.8761 52.1151 16.9124 51.4037 16.9517C50.6902 16.989 49.9742 17.0209 49.2533 17.0511C48.5306 17.0791 47.8791 17.0926 47.3003 17.0926C46.3991 17.0926 45.7678 16.8715 45.4017 16.427C45.0362 15.9854 44.8437 15.3106 44.8254 14.4058H53.4827L53.707 12.1707V12.1704Z" fill="white"/>
<path d="M61.859 16.8665C62.6481 16.8665 63.2385 16.71 63.6318 16.3994C64.025 16.0884 64.2903 15.6305 64.4321 15.0273C64.5717 14.4242 64.6426 13.699 64.6426 12.8498C64.6426 11.945 64.5763 11.2222 64.4458 10.6858C64.3154 10.147 64.0889 9.76252 63.7711 9.5257C63.453 9.29072 63.0209 9.17354 62.4788 9.17354C62.0855 9.17354 61.6714 9.2286 61.2412 9.34147C60.8112 9.45435 60.4454 9.56015 60.1456 9.65211V16.754C60.3879 16.7724 60.6786 16.7955 61.0172 16.8232C61.3533 16.853 61.6347 16.8668 61.8587 16.8668L61.859 16.8665ZM61.804 20.4576C61.3169 20.4576 60.7177 20.4299 60.0041 20.3746C59.2927 20.3171 58.5676 20.2503 57.8265 20.1768C57.0855 20.1008 56.4266 20.0249 55.8457 19.9489V0.234009H60.1456V6.28617C60.5759 6.13639 61.1293 5.97984 61.804 5.81899C62.4788 5.65998 63.0872 5.5794 63.6318 5.5794C64.9608 5.5794 66.0196 5.85805 66.8065 6.41289C67.5931 6.96988 68.156 7.78245 68.4921 8.84599C68.8307 9.91199 69 11.2194 69 12.7643C69 14.6703 68.7827 16.1828 68.3528 17.3039C67.9204 18.4274 67.1815 19.2329 66.1318 19.7235C65.0821 20.2137 63.6409 20.4576 61.804 20.4576Z" fill="white"/>
<path d="M86.9028 20.1194V5.89041H91.1756V6.76726C91.475 6.57842 91.832 6.39419 92.2436 6.21489C92.6552 6.03773 93.0901 5.8858 93.5497 5.7637C94.0096 5.6416 94.4441 5.57947 94.8582 5.57947C96.1872 5.57947 97.2231 5.80983 97.962 6.2724C98.7031 6.73528 99.2269 7.49926 99.5379 8.56311C99.8469 9.6288 100 11.0399 100 12.7921V20.1194H95.6998V13.0473C95.6998 12.1612 95.6451 11.4452 95.5329 10.8972C95.4186 10.3516 95.2218 9.95574 94.9407 9.70938C94.6614 9.46549 94.2568 9.34093 93.733 9.34093C93.4332 9.34093 93.1246 9.37076 92.8068 9.42612C92.4865 9.48363 92.187 9.5596 91.9056 9.65187C91.6245 9.74844 91.391 9.84071 91.2037 9.93482V20.1191H86.9034L86.9028 20.1194Z" fill="white"/>
<path d="M22.3494 16.961C22.0447 17.0554 21.7401 17.1262 21.4128 17.1969C21.0846 17.2916 20.7567 17.315 20.4288 17.315C19.9842 17.315 19.656 17.1735 19.4216 16.8903C19.1875 16.6076 19.0943 16.2299 19.0943 15.7591C19.0943 15.2636 19.2107 14.8868 19.4457 14.6269C19.7027 14.3446 20.0777 14.1794 20.5932 14.1324L23.0761 13.8962V16.7017C22.8885 16.7722 22.6547 16.8669 22.35 16.9607L22.3494 16.961ZM26.7059 7.48447C26.2609 6.80138 25.6048 6.3062 24.7385 6.02356C23.8951 5.71692 22.8649 5.57513 21.6469 5.57513C20.9676 5.57513 20.2415 5.62219 19.4686 5.71692C18.7193 5.78735 17.9694 5.90545 17.2666 6.02356C16.5637 6.14074 15.955 6.25915 15.463 6.40063L15.6039 9.3941C16.0959 9.34705 16.6579 9.276 17.3372 9.22987C18.0162 9.1822 18.6952 9.13514 19.3981 9.08808C20.0774 9.04103 20.7102 9.04103 21.249 9.04103C21.8577 9.04103 22.303 9.15851 22.607 9.3941C22.9117 9.63031 23.0758 10.0311 23.0758 10.5964V11.3271L19.9368 11.5867C18.8361 11.6338 17.9227 11.7989 17.1499 12.0579C16.3764 12.3175 15.7912 12.7416 15.393 13.3549C14.9949 13.9441 14.7837 14.7924 14.7837 15.8765C14.7837 17.4328 15.159 18.564 15.9318 19.3181C16.6811 20.0732 17.8292 20.4503 19.3748 20.4503C19.96 20.4503 20.5461 20.4032 21.1317 20.2854C21.6936 20.1673 22.2324 20.0255 22.7011 19.8607C23.1931 19.6961 23.591 19.5547 23.8951 19.4132C24.0124 19.6017 24.1765 19.7902 24.3406 19.9554C25.1131 20.7338 26.1906 21.2284 27.3852 21.2284V10.3614C27.3852 9.13545 27.1511 8.16848 26.7059 7.48477V7.48447Z" fill="white"/>
<path d="M6.21228 16.8943C6.88702 16.8943 7.41079 16.7399 7.78606 16.4271C8.16132 16.1162 8.42657 15.665 8.58639 15.0714C8.74652 14.4775 8.82658 13.7455 8.82658 12.8776C8.82658 11.464 8.63895 10.4924 8.26399 9.96527C7.88873 9.43565 7.33531 9.17331 6.60557 9.17331C6.3608 9.17331 6.0931 9.2056 5.80524 9.27234C5.51249 9.33693 5.23807 9.41751 4.97496 9.51162C4.71185 9.60604 4.48785 9.70016 4.30022 9.79458V16.6962C4.48785 16.7353 4.76441 16.7768 5.1305 16.8229C5.49415 16.8712 5.85566 16.8943 6.21228 16.8943ZM0 26.0036V5.89041H4.24522L4.27272 6.76726C4.53583 6.59688 4.85823 6.41972 5.24235 6.23088C5.62678 6.04204 6.04268 5.88549 6.49342 5.7637C6.94141 5.6416 7.38299 5.57947 7.81325 5.57947C9.72531 5.57947 11.0931 6.20105 11.9167 7.44666C12.7424 8.69228 13.1543 10.5407 13.1543 12.9901C13.1543 14.726 12.9529 16.1463 12.5505 17.2489C12.1456 18.3515 11.4962 19.1619 10.5972 19.6823C9.69598 20.2003 8.49746 20.458 6.99917 20.458C6.54873 20.458 6.06591 20.4165 5.5513 20.3313C5.03669 20.2464 4.61803 20.1772 4.30022 20.1197V26.0036H0Z" fill="white"/>
</svg>
