<svg width="15" height="15" viewBox="0 0 15 15" fill="none" xmlns="http://www.w3.org/2000/svg">
<path d="M10.3125 10.7812L12.1 11.8375L11.6313 12.6L9.375 11.25V8.125H10.3125V10.7812ZM14.375 10.625C14.375 13.0437 12.4187 15 10 15C8.80625 15 7.73125 14.525 6.94375 13.75H3.75C3.05625 13.75 2.5 13.1938 2.5 12.5V2.5C2.5 2.16848 2.6317 1.85054 2.86612 1.61612C3.10054 1.3817 3.41848 1.25 3.75 1.25H4.375V5.625L5.9375 4.6875L7.5 5.625V1.25H11.25C11.5815 1.25 11.8995 1.3817 12.1339 1.61612C12.3683 1.85054 12.5 2.16848 12.5 2.5V7.0375C13.6313 7.83125 14.375 9.1375 14.375 10.625ZM13.125 10.625C13.125 8.9 11.725 7.5 10 7.5C8.275 7.5 6.875 8.9 6.875 10.625C6.875 12.35 8.275 13.75 10 13.75C11.725 13.75 13.125 12.35 13.125 10.625Z" fill="#F9F9F9"/>
</svg>
