<svg width="11" height="16" viewBox="0 0 11 16" fill="none" xmlns="http://www.w3.org/2000/svg">
<path fill-rule="evenodd" clip-rule="evenodd" d="M4.57637 5.15677V2.05225C2.42583 2.05225 0.682495 3.80684 0.682495 5.97125V9.07595C2.83303 9.07595 4.57637 7.32136 4.57637 5.15695V5.15677Z" fill="#489500"/>
<path fill-rule="evenodd" clip-rule="evenodd" d="M0.682312 10.0882L2.86361 12.2836C4.38417 13.814 6.8496 13.814 8.37033 12.2836L6.18922 10.0882C5.42876 9.32302 4.43226 8.94043 3.43576 8.94043C2.43926 8.94043 1.44277 9.32302 0.682312 10.0882Z" fill="#489500"/>
<path fill-rule="evenodd" clip-rule="evenodd" d="M0.682312 5.97106V8.67573C1.2214 8.17783 1.72124 7.60821 2.00202 6.92595C2.33283 6.13211 2.41434 5.2662 2.65108 4.43731C2.95307 3.34327 3.59029 2.58947 4.57618 2.05188C2.42547 2.05188 0.682312 3.80647 0.682312 5.97088V5.97106Z" fill="#489500"/>
<path fill-rule="evenodd" clip-rule="evenodd" d="M0.963318 10.3708L2.86384 12.2836C4.3844 13.814 6.84965 13.814 8.37057 12.2836C7.2961 12.6051 6.3148 12.5254 5.33334 11.9668C4.5308 11.518 3.81967 10.9155 2.95348 10.6011C2.43791 10.422 1.88555 10.3624 1.33639 10.3624C1.21173 10.3624 1.08726 10.3655 0.963495 10.371L0.963318 10.3708Z" fill="#489500"/>
<path fill-rule="evenodd" clip-rule="evenodd" d="M1.01202 9.7921C1.61547 9.80936 2.21344 9.89015 2.79285 10.0813C3.47851 10.3144 4.05721 10.739 4.61876 11.1685C5.85589 12.1499 6.75603 12.6263 8.37047 12.2836L6.18918 10.088C5.4289 9.32302 4.43275 8.94043 3.43626 8.94043C2.57802 8.94043 1.71944 9.22426 1.01202 9.7921Z" fill="#489500"/>
<path d="M8.37051 12.2835L8.37016 12.2839L6.44294 10.5855C4.93139 9.25373 2.68468 9.30925 1.24068 10.6501L0.682312 10.088C2.20323 8.55759 4.66848 8.55759 6.18904 10.088L8.37051 12.2835Z" fill="#489500"/>
<path d="M4.57618 2.05212V2.05248C2.63375 2.39112 1.22264 4.16119 1.36179 6.18378L1.5538 8.97725C1.27374 9.04184 0.981827 9.07565 0.682312 9.07565V5.97113C0.682312 3.80654 2.42565 2.05212 4.57618 2.05212Z" fill="#489500"/>
<path fill-rule="evenodd" clip-rule="evenodd" d="M4.57637 5.15677V2.05225C2.42583 2.05225 0.682495 3.80684 0.682495 5.97125V9.07595C2.83303 9.07595 4.57637 7.32118 4.57637 5.15677Z" fill="#489500"/>
<path fill-rule="evenodd" clip-rule="evenodd" d="M0.682312 10.0882L2.86361 12.2836C4.38417 13.814 6.8496 13.814 8.37033 12.2836L6.18922 10.0882C5.42876 9.32302 4.43226 8.94043 3.43576 8.94043C2.43926 8.94043 1.44277 9.32302 0.682312 10.0882Z" fill="#489500"/>
<path fill-rule="evenodd" clip-rule="evenodd" d="M0.682312 5.97106V8.67573C1.2214 8.17783 1.72124 7.60821 2.00202 6.92595C2.33283 6.13211 2.41434 5.2662 2.65108 4.43731C2.95307 3.34327 3.59029 2.58947 4.57618 2.05188C2.42547 2.05188 0.682312 3.80647 0.682312 5.97088V5.97106Z" fill="#489500"/>
<path fill-rule="evenodd" clip-rule="evenodd" d="M4.57638 5.157V2.05212C3.65627 2.6447 3.08393 3.40953 2.86823 4.49289C2.72537 5.1716 2.68894 5.86721 2.5307 6.55125C2.44937 6.89896 2.3454 7.24472 2.17973 7.57838C1.90356 8.12611 1.53809 8.60853 1.12347 9.05021C3.06625 8.83026 4.57638 7.17069 4.57638 5.15683V5.157Z" fill="#489500"/>
<path fill-rule="evenodd" clip-rule="evenodd" d="M0.963318 10.3708L2.86384 12.2836C4.3844 13.814 6.84965 13.814 8.37057 12.2836C7.2961 12.6051 6.3148 12.5254 5.33334 11.9668C4.5308 11.518 3.81967 10.9155 2.95348 10.6011C2.43791 10.422 1.88555 10.3624 1.33639 10.3624C1.21173 10.3624 1.08726 10.3655 0.963495 10.371L0.963318 10.3708Z" fill="#489500"/>
<path fill-rule="evenodd" clip-rule="evenodd" d="M1.01202 9.7921C1.61547 9.80936 2.21344 9.89015 2.79285 10.0813C3.47851 10.3144 4.05721 10.739 4.61876 11.1685C5.85589 12.1499 6.75603 12.6263 8.37047 12.2836L6.18918 10.088C5.4289 9.32302 4.43275 8.94043 3.43626 8.94043C2.57802 8.94043 1.71944 9.22426 1.01202 9.7921Z" fill="#489500"/>
<path d="M4.57618 2.05212V2.05248C2.63375 2.39112 1.22264 4.16119 1.36179 6.18378L1.5538 8.97725C1.27374 9.04184 0.981827 9.07565 0.682312 9.07565V5.97113C0.682312 3.80654 2.42565 2.05212 4.57618 2.05212Z" fill="#489500"/>
<path fill-rule="evenodd" clip-rule="evenodd" d="M4.57638 5.157V2.05212C3.65627 2.6447 3.08393 3.40953 2.86823 4.49289C2.72537 5.1716 2.68894 5.86721 2.5307 6.55125C2.44937 6.89896 2.3454 7.24472 2.17973 7.57838C1.90356 8.12611 1.53809 8.60853 1.12347 9.05021C3.06625 8.83026 4.57638 7.17069 4.57638 5.15683V5.157Z" fill="#489500"/>
<path fill-rule="evenodd" clip-rule="evenodd" d="M5.16802 4.12093V0.000488281C2.31397 0.000488281 6.10352e-05 2.32915 6.10352e-05 5.2018V9.32225C2.85429 9.32225 5.16802 6.99359 5.16802 4.12111V4.12093Z" fill="#489500"/>
<path fill-rule="evenodd" clip-rule="evenodd" d="M6.10352e-05 10.6656L2.89514 13.5792C4.91324 15.6105 8.18545 15.6105 10.2035 13.5792L7.30865 10.6656C6.29942 9.65008 4.97689 9.14221 3.65436 9.14221C2.33182 9.14221 1.00929 9.65008 6.10352e-05 10.6656Z" fill="#489500"/>
<path fill-rule="evenodd" clip-rule="evenodd" d="M6.10352e-05 5.20149V8.79111C0.715431 8.1302 1.37882 7.37427 1.75171 6.46903C2.19073 5.41539 2.29876 4.26619 2.61295 3.16592C3.0136 1.71402 3.85946 0.713404 5.16802 0C2.31361 0 6.10352e-05 2.32848 6.10352e-05 5.20132V5.20149Z" fill="#489500"/>
<path fill-rule="evenodd" clip-rule="evenodd" d="M2.90106 3.23953C2.71153 4.1405 2.66326 5.0637 2.45321 5.97161C2.34518 6.43303 2.20744 6.89197 1.98732 7.33489C1.62097 8.06164 1.13562 8.70208 0.585571 9.28825C3.16416 8.99606 5.16829 6.79374 5.16829 4.12092V0.00012207C3.94725 0.786663 3.1875 1.80169 2.90106 3.23953Z" fill="#489500"/>
<path fill-rule="evenodd" clip-rule="evenodd" d="M0.372797 11.0408L2.89516 13.5792C4.91308 15.6103 8.18511 15.6103 10.2036 13.5792C8.77743 14.0061 7.47505 13.9004 6.17249 13.1589C5.10704 12.5633 4.16323 11.7636 3.01397 11.3463C2.32937 11.1087 1.59632 11.0295 0.867509 11.0295C0.702015 11.0295 0.537052 11.0335 0.37262 11.0408H0.372797Z" fill="#489500"/>
<path fill-rule="evenodd" clip-rule="evenodd" d="M0.437622 10.2727C1.23857 10.2958 2.03191 10.4029 2.80103 10.6565C3.71107 10.966 4.47913 11.5292 5.22438 12.0993C6.86606 13.4019 8.06093 14.0342 10.2039 13.5792L7.30879 10.6654C6.29974 9.64985 4.97756 9.14216 3.6552 9.14233C2.51619 9.14233 1.37683 9.51923 0.437799 10.2727H0.437622Z" fill="#489500"/>
</svg>
