<svg width="11" height="16" viewBox="0 0 11 16" fill="none" xmlns="http://www.w3.org/2000/svg">
<path fill-rule="evenodd" clip-rule="evenodd" d="M4.57649 5.15677V2.05225C2.42596 2.05225 0.682617 3.80684 0.682617 5.97125V9.07595C2.83315 9.07595 4.57649 7.32136 4.57649 5.15695V5.15677Z" fill="#F9F9F9"/>
<path fill-rule="evenodd" clip-rule="evenodd" d="M0.682373 10.0882L2.86367 12.2836C4.38423 13.814 6.84966 13.814 8.3704 12.2836L6.18928 10.0882C5.42882 9.32302 4.43232 8.94043 3.43582 8.94043C2.43933 8.94043 1.44283 9.32302 0.682373 10.0882Z" fill="#F9F9F9"/>
<path fill-rule="evenodd" clip-rule="evenodd" d="M0.682373 5.97112V8.67579C1.22146 8.17789 1.7213 7.60827 2.00208 6.92601C2.33289 6.13217 2.4144 5.26626 2.65115 4.43737C2.95314 3.34333 3.59035 2.58953 4.57624 2.05194C2.42553 2.05194 0.682373 3.80653 0.682373 5.97095V5.97112Z" fill="#F9F9F9"/>
<path fill-rule="evenodd" clip-rule="evenodd" d="M0.963379 10.3707L2.8639 12.2835C4.38446 13.8139 6.84971 13.8139 8.37063 12.2835C7.29616 12.6051 6.31487 12.5254 5.3334 11.9668C4.53086 11.518 3.81973 10.9154 2.95355 10.601C2.43797 10.422 1.88562 10.3624 1.33645 10.3624C1.2118 10.3624 1.08732 10.3654 0.963556 10.3709L0.963379 10.3707Z" fill="#F9F9F9"/>
<path fill-rule="evenodd" clip-rule="evenodd" d="M1.01196 9.7921C1.61541 9.80936 2.21338 9.89015 2.79279 10.0813C3.47845 10.3144 4.05715 10.739 4.6187 11.1685C5.85583 12.1499 6.75597 12.6263 8.37041 12.2836L6.18912 10.088C5.42884 9.32302 4.43269 8.94043 3.43619 8.94043C2.57796 8.94043 1.71938 9.22426 1.01196 9.7921Z" fill="#F9F9F9"/>
<path d="M8.37057 12.2836L8.37022 12.2839L6.443 10.5856C4.93145 9.25379 2.68474 9.30932 1.24074 10.6502L0.682373 10.088C2.20329 8.55765 4.66854 8.55765 6.1891 10.088L8.37057 12.2836Z" fill="#F9F9F9"/>
<path d="M4.57624 2.05212V2.05248C2.63382 2.39112 1.2227 4.16119 1.36185 6.18378L1.55387 8.97725C1.2738 9.04184 0.981888 9.07565 0.682373 9.07565V5.97113C0.682373 3.80654 2.42571 2.05212 4.57624 2.05212Z" fill="#F9F9F9"/>
<path fill-rule="evenodd" clip-rule="evenodd" d="M4.57649 5.15677V2.05225C2.42596 2.05225 0.682617 3.80684 0.682617 5.97125V9.07595C2.83315 9.07595 4.57649 7.32118 4.57649 5.15677Z" fill="#F9F9F9"/>
<path fill-rule="evenodd" clip-rule="evenodd" d="M0.682373 10.0882L2.86367 12.2836C4.38423 13.814 6.84966 13.814 8.3704 12.2836L6.18928 10.0882C5.42882 9.32302 4.43232 8.94043 3.43582 8.94043C2.43933 8.94043 1.44283 9.32302 0.682373 10.0882Z" fill="#F9F9F9"/>
<path fill-rule="evenodd" clip-rule="evenodd" d="M0.682373 5.97112V8.67579C1.22146 8.17789 1.7213 7.60827 2.00208 6.92601C2.33289 6.13217 2.4144 5.26626 2.65115 4.43737C2.95314 3.34333 3.59035 2.58953 4.57624 2.05194C2.42553 2.05194 0.682373 3.80653 0.682373 5.97095V5.97112Z" fill="#F9F9F9"/>
<path fill-rule="evenodd" clip-rule="evenodd" d="M4.57644 5.15701V2.05212C3.65633 2.6447 3.084 3.40953 2.86829 4.49289C2.72543 5.1716 2.689 5.86721 2.53076 6.55125C2.44943 6.89896 2.34546 7.24472 2.17979 7.57838C1.90362 8.12611 1.53815 8.60853 1.12354 9.05021C3.06632 8.83026 4.57644 7.17069 4.57644 5.15683V5.15701Z" fill="#F9F9F9"/>
<path fill-rule="evenodd" clip-rule="evenodd" d="M0.963379 10.3707L2.8639 12.2835C4.38446 13.8139 6.84971 13.8139 8.37063 12.2835C7.29616 12.6051 6.31487 12.5254 5.3334 11.9668C4.53086 11.518 3.81973 10.9154 2.95355 10.601C2.43797 10.422 1.88562 10.3624 1.33645 10.3624C1.2118 10.3624 1.08732 10.3654 0.963556 10.3709L0.963379 10.3707Z" fill="#F9F9F9"/>
<path fill-rule="evenodd" clip-rule="evenodd" d="M1.01196 9.7921C1.61541 9.80936 2.21338 9.89015 2.79279 10.0813C3.47845 10.3144 4.05715 10.739 4.6187 11.1685C5.85583 12.1499 6.75597 12.6263 8.37041 12.2836L6.18912 10.088C5.42884 9.32302 4.43269 8.94043 3.43619 8.94043C2.57796 8.94043 1.71938 9.22426 1.01196 9.7921Z" fill="#F9F9F9"/>
<path d="M4.57624 2.05212V2.05248C2.63382 2.39112 1.2227 4.16119 1.36185 6.18378L1.55387 8.97725C1.2738 9.04184 0.981888 9.07565 0.682373 9.07565V5.97113C0.682373 3.80654 2.42571 2.05212 4.57624 2.05212Z" fill="#F9F9F9"/>
<path fill-rule="evenodd" clip-rule="evenodd" d="M4.57644 5.15701V2.05212C3.65633 2.6447 3.084 3.40953 2.86829 4.49289C2.72543 5.1716 2.689 5.86721 2.53076 6.55125C2.44943 6.89896 2.34546 7.24472 2.17979 7.57838C1.90362 8.12611 1.53815 8.60853 1.12354 9.05021C3.06632 8.83026 4.57644 7.17069 4.57644 5.15683V5.15701Z" fill="#F9F9F9"/>
<path fill-rule="evenodd" clip-rule="evenodd" d="M5.16796 4.12093V0.000488281C2.3139 0.000488281 0 2.32915 0 5.2018V9.32225C2.85423 9.32225 5.16796 6.99359 5.16796 4.12111V4.12093Z" fill="#F9F9F9"/>
<path fill-rule="evenodd" clip-rule="evenodd" d="M0 10.6656L2.89508 13.5792C4.91318 15.6105 8.18538 15.6105 10.2035 13.5792L7.30859 10.6656C6.29936 9.65008 4.97683 9.14221 3.6543 9.14221C2.33176 9.14221 1.00923 9.65008 0 10.6656Z" fill="#F9F9F9"/>
<path fill-rule="evenodd" clip-rule="evenodd" d="M0 5.20149V8.79111C0.71537 8.1302 1.37876 7.37427 1.75165 6.46903C2.19067 5.41539 2.2987 4.26619 2.61289 3.16592C3.01354 1.71402 3.85939 0.713404 5.16796 0C2.31355 0 0 2.32848 0 5.20132V5.20149Z" fill="#F9F9F9"/>
<path fill-rule="evenodd" clip-rule="evenodd" d="M2.90119 3.23959C2.71165 4.14056 2.66338 5.06377 2.45333 5.97167C2.3453 6.43309 2.20757 6.89203 1.98744 7.33495C1.62109 8.0617 1.13575 8.70214 0.585693 9.28831C3.16428 8.99612 5.16841 6.7938 5.16841 4.12098V0.000183105C3.94737 0.786725 3.18762 1.80175 2.90119 3.23959Z" fill="#F9F9F9"/>
<path fill-rule="evenodd" clip-rule="evenodd" d="M0.372736 11.0408L2.8951 13.5792C4.91302 15.6103 8.18505 15.6103 10.2035 13.5792C8.77736 14.0061 7.47499 13.9004 6.17243 13.1589C5.10698 12.5633 4.16317 11.7636 3.01391 11.3463C2.32931 11.1087 1.59626 11.0295 0.867448 11.0295C0.701954 11.0295 0.536991 11.0335 0.372559 11.0408H0.372736Z" fill="#F9F9F9"/>
<path fill-rule="evenodd" clip-rule="evenodd" d="M0.4375 10.2727C1.23845 10.2958 2.03179 10.4029 2.80091 10.6565C3.71095 10.966 4.47901 11.5292 5.22426 12.0993C6.86593 13.4019 8.06081 14.0342 10.2037 13.5792L7.30866 10.6654C6.29961 9.64985 4.97743 9.14216 3.65508 9.14233C2.51607 9.14233 1.37671 9.51923 0.437677 10.2727H0.4375Z" fill="#F9F9F9"/>
</svg>
