<svg width="20" height="20" viewBox="0 0 20 20" fill="none" xmlns="http://www.w3.org/2000/svg">
<path d="M16.7642 6.3542C16.6027 6.33555 16.4394 6.36452 16.2942 6.43753L12.5 8.33336V11.6667L16.2942 13.5625C16.4211 13.6259 16.562 13.6559 16.7037 13.6496C16.8455 13.6433 16.9832 13.6009 17.104 13.5265C17.2247 13.452 17.3245 13.348 17.3938 13.2242C17.4631 13.1005 17.4996 12.961 17.5 12.8192V7.18086C17.4998 6.9769 17.4247 6.7801 17.2891 6.62774C17.1535 6.47539 16.9667 6.37806 16.7642 6.3542Z" fill="#F9F9F9"/>
<path d="M4.16675 4.16669C2.79591 4.16669 1.66675 5.29585 1.66675 6.66669V13.3334C1.66675 14.7042 2.79591 15.8334 4.16675 15.8334H10.8334C12.2042 15.8334 13.3334 14.7042 13.3334 13.3334V6.66669C13.3334 5.29585 12.2042 4.16669 10.8334 4.16669H4.16675Z" fill="#F9F9F9"/>
</svg>
