<svg width="15" height="15" viewBox="0 0 15 15" fill="none" xmlns="http://www.w3.org/2000/svg">
<path d="M7.1875 12.5C6.66667 12.5 6.22396 12.3177 5.85938 11.9531C5.49479 11.5885 5.3125 11.1458 5.3125 10.625H6.5625C6.5625 10.8021 6.6225 10.9506 6.7425 11.0706C6.8625 11.1906 7.01083 11.2504 7.1875 11.25C7.36417 11.2496 7.51271 11.1896 7.63313 11.07C7.75354 10.9504 7.81333 10.8021 7.8125 10.625C7.81167 10.4479 7.75167 10.2996 7.6325 10.18C7.51333 10.0604 7.365 10.0004 7.1875 10H1.25V8.75H7.1875C7.70833 8.75 8.15104 8.93229 8.51562 9.29688C8.88021 9.66146 9.0625 10.1042 9.0625 10.625C9.0625 11.1458 8.88021 11.5885 8.51562 11.9531C8.15104 12.3177 7.70833 12.5 7.1875 12.5ZM1.25 6.25V5H9.6875C9.95833 5 10.1823 4.91146 10.3594 4.73438C10.5365 4.55729 10.625 4.33333 10.625 4.0625C10.625 3.79167 10.5365 3.56771 10.3594 3.39063C10.1823 3.21354 9.95833 3.125 9.6875 3.125C9.41667 3.125 9.19271 3.21354 9.01562 3.39063C8.83854 3.56771 8.75 3.79167 8.75 4.0625H7.5C7.5 3.44792 7.71104 2.92958 8.13312 2.5075C8.55521 2.08542 9.07333 1.87458 9.6875 1.875C10.3017 1.87542 10.82 2.08646 11.2425 2.50813C11.665 2.92979 11.8758 3.44792 11.875 4.0625C11.8742 4.67708 11.6633 5.19542 11.2425 5.6175C10.8217 6.03958 10.3033 6.25042 9.6875 6.25H1.25ZM11.5625 11.25V10C11.8333 10 12.0573 9.91146 12.2344 9.73438C12.4115 9.55729 12.5 9.33333 12.5 9.0625C12.5 8.79167 12.4115 8.56771 12.2344 8.39063C12.0573 8.21354 11.8333 8.125 11.5625 8.125H1.25V6.875H11.5625C12.1771 6.875 12.6954 7.08604 13.1175 7.50813C13.5396 7.93021 13.7504 8.44833 13.75 9.0625C13.7496 9.67667 13.5388 10.195 13.1175 10.6175C12.6963 11.04 12.1779 11.2508 11.5625 11.25Z" fill="#0096FF"/>
</svg>
