<svg width="15" height="15" viewBox="0 0 15 15" fill="none" xmlns="http://www.w3.org/2000/svg">
<path fill-rule="evenodd" clip-rule="evenodd" d="M7.49991 0.366272L11.6918 4.55815C12.5208 5.38722 13.0854 6.44351 13.3141 7.59345C13.5429 8.74339 13.4255 9.93533 12.9768 11.0185C12.5281 12.1018 11.7682 13.0276 10.7934 13.679C9.81851 14.3304 8.67237 14.678 7.49991 14.678C6.32744 14.678 5.1813 14.3304 4.20643 13.679C3.23156 13.0276 2.47174 12.1018 2.02305 11.0185C1.57436 9.93533 1.45695 8.74339 1.68568 7.59345C1.9144 6.44351 2.47898 5.38722 3.30803 4.55815L7.49991 0.366272ZM7.49991 11.25C6.83686 11.25 6.20098 10.9866 5.73214 10.5178C5.2633 10.0489 4.99991 9.41306 4.99991 8.75002H3.7499C3.7499 9.74458 4.14499 10.6984 4.84825 11.4017C5.55152 12.1049 6.50534 12.5 7.49991 12.5V11.25Z" fill="#85DBFF"/>
</svg>
