<svg width="22" height="22" viewBox="0 0 22 22" fill="none" xmlns="http://www.w3.org/2000/svg">
<path fill-rule="evenodd" clip-rule="evenodd" d="M7.45296 4.62321C7.45296 3.65075 7.83927 2.71812 8.5269 2.03048C9.21454 1.34285 10.1472 0.956543 11.1196 0.956543C12.0921 0.956543 13.0247 1.34285 13.7124 2.03048C14.4 2.71812 14.7863 3.65075 14.7863 4.62321C14.7863 5.59567 14.4 6.5283 13.7124 7.21593C13.0247 7.90357 12.0921 8.28988 11.1196 8.28988C10.1472 8.28988 9.21454 7.90357 8.5269 7.21593C7.83927 6.5283 7.45296 5.59567 7.45296 4.62321ZM7.45296 10.1232C6.23739 10.1232 5.0716 10.6061 4.21206 11.4656C3.35251 12.3252 2.86963 13.491 2.86963 14.7065C2.86963 15.4359 3.15936 16.1354 3.67509 16.6511C4.19081 17.1668 4.89028 17.4565 5.61963 17.4565H16.6196C17.349 17.4565 18.0484 17.1668 18.5642 16.6511C19.0799 16.1354 19.3696 15.4359 19.3696 14.7065C19.3696 13.491 18.8867 12.3252 18.0272 11.4656C17.1677 10.6061 16.0019 10.1232 14.7863 10.1232H7.45296Z" fill="#2B4C00"/>
</svg>
