<svg width="25" height="25" viewBox="0 0 25 25" fill="none" xmlns="http://www.w3.org/2000/svg">
<path d="M4.1665 7.29163V6.24996C4.1665 5.69742 4.386 5.16752 4.7767 4.77682C5.1674 4.38612 5.6973 4.16663 6.24984 4.16663H8.33317M4.1665 17.7083V18.75C4.1665 19.3025 4.386 19.8324 4.7767 20.2231C5.1674 20.6138 5.6973 20.8333 6.24984 20.8333H8.33317M16.6665 4.16663H18.7498C19.3024 4.16663 19.8323 4.38612 20.223 4.77682C20.6137 5.16752 20.8332 5.69742 20.8332 6.24996V7.29163M16.6665 20.8333H18.7498C19.3024 20.8333 19.8323 20.6138 20.223 20.2231C20.6137 19.8324 20.8332 19.3025 20.8332 18.75V17.7083M5.20817 12.5H19.7915" stroke="#F9F9F9" stroke-width="2" stroke-linecap="round" stroke-linejoin="round"/>
</svg>
