<svg width="25" height="25" viewBox="0 0 25 25" fill="none" xmlns="http://www.w3.org/2000/svg">
<circle cx="12.5" cy="12.5" r="12.5" fill="#8F0A0A"/>
<path d="M15.7185 7.12465C15.8261 7.01086 15.9555 6.9198 16.0989 6.85685C16.2423 6.7939 16.3969 6.76035 16.5535 6.75817C16.7102 6.75599 16.8656 6.78523 17.0107 6.84417C17.1559 6.9031 17.2877 6.99053 17.3985 7.10129C17.5092 7.21205 17.5967 7.34389 17.6556 7.48901C17.7145 7.63414 17.7438 7.78961 17.7416 7.94623C17.7394 8.10285 17.7059 8.25744 17.6429 8.40087C17.58 8.5443 17.4889 8.67366 17.3751 8.78129L13.9415 12.2149C13.937 12.2194 13.9334 12.2248 13.9309 12.2307C13.9284 12.2367 13.9272 12.243 13.9272 12.2495C13.9272 12.2559 13.9284 12.2622 13.9309 12.2682C13.9334 12.2741 13.937 12.2795 13.9415 12.284L17.3751 15.7176C17.4854 15.8261 17.5731 15.9553 17.6332 16.0979C17.6933 16.2404 17.7246 16.3935 17.7252 16.5482C17.7259 16.7029 17.6959 16.8562 17.637 16.9992C17.5781 17.1423 17.4914 17.2722 17.3821 17.3816C17.2727 17.491 17.1428 17.5777 16.9997 17.6366C16.8567 17.6955 16.7034 17.7256 16.5487 17.7249C16.394 17.7243 16.241 17.6931 16.0984 17.633C15.9558 17.573 15.8266 17.4853 15.7181 17.375L12.2845 13.9415C12.2799 13.9369 12.2746 13.9333 12.2686 13.9308C12.2627 13.9284 12.2563 13.9271 12.2499 13.9271C12.2435 13.9271 12.2371 13.9284 12.2312 13.9308C12.2253 13.9333 12.2199 13.9369 12.2153 13.9415L8.78175 17.375C8.67327 17.4853 8.54403 17.573 8.40148 17.6331C8.25893 17.6932 8.10589 17.7245 7.9512 17.7251C7.7965 17.7258 7.64321 17.6958 7.50016 17.6369C7.35712 17.578 7.22715 17.4914 7.11775 17.382C7.00835 17.2726 6.92168 17.1427 6.86276 16.9997C6.80383 16.8566 6.77381 16.7033 6.77442 16.5486C6.77503 16.3939 6.80627 16.2409 6.86632 16.0983C6.92638 15.9558 7.01406 15.8265 7.12432 15.718L10.5579 12.2844C10.5625 12.2799 10.5661 12.2745 10.5685 12.2686C10.571 12.2626 10.5723 12.2563 10.5723 12.2498C10.5723 12.2434 10.571 12.2371 10.5685 12.2311C10.5661 12.2252 10.5625 12.2198 10.5579 12.2153L7.12432 8.78169C6.90749 8.56134 6.7865 8.26423 6.78772 7.95509C6.78895 7.64594 6.91228 7.3498 7.13085 7.13118C7.34942 6.91255 7.64553 6.78915 7.95468 6.78786C8.26382 6.78656 8.56096 6.90748 8.78136 7.12426L12.2149 10.5579C12.2195 10.5624 12.2249 10.566 12.2308 10.5685C12.2367 10.5709 12.2431 10.5722 12.2495 10.5722C12.2559 10.5722 12.2623 10.5709 12.2682 10.5685C12.2742 10.566 12.2796 10.5624 12.2841 10.5579L15.7185 7.12465Z" fill="#F9F9F9"/>
</svg>
