<svg width="15" height="15" viewBox="0 0 15 15" fill="none" xmlns="http://www.w3.org/2000/svg">
<g clip-path="url(#clip0_2514_64)">
<path d="M7.5 14.0625C11.1244 14.0625 14.0625 11.1244 14.0625 7.5C14.0625 3.87563 11.1244 0.9375 7.5 0.9375C3.87563 0.9375 0.9375 3.87563 0.9375 7.5C0.9375 11.1244 3.87563 14.0625 7.5 14.0625Z" fill="white"/>
<path d="M7.5 14.0625C11.1244 14.0625 14.0625 11.1244 14.0625 7.5C14.0625 3.87563 11.1244 0.9375 7.5 0.9375C3.87563 0.9375 0.9375 3.87563 0.9375 7.5C0.9375 11.1244 3.87563 14.0625 7.5 14.0625Z" fill="white"/>
<path d="M6.5625 4.375H8.4375V10.625H6.5625V4.375Z" fill="#2B4C00"/>
<path d="M4.375 6.5625H10.625V8.4375H4.375V6.5625Z" fill="#2B4C00"/>
</g>
<defs>
<clipPath id="clip0_2514_64">
<rect width="15" height="15" fill="white"/>
</clipPath>
</defs>
</svg>
