<svg width="15" height="15" viewBox="0 0 15 15" fill="none" xmlns="http://www.w3.org/2000/svg">
<path fill-rule="evenodd" clip-rule="evenodd" d="M11.5625 2.5C11.5625 2.25136 11.4637 2.0129 11.2879 1.83709C11.1121 1.66127 10.8736 1.5625 10.625 1.5625C10.3764 1.5625 10.1379 1.66127 9.96209 1.83709C9.78627 2.0129 9.6875 2.25136 9.6875 2.5V2.8125H2.5C2.25136 2.8125 2.0129 2.91127 1.83709 3.08709C1.66127 3.2629 1.5625 3.50136 1.5625 3.75C1.5625 3.99864 1.66127 4.2371 1.83709 4.41291C2.0129 4.58873 2.25136 4.6875 2.5 4.6875H9.6875V5C9.6875 5.24864 9.78627 5.4871 9.96209 5.66291C10.1379 5.83873 10.3764 5.9375 10.625 5.9375C10.8736 5.9375 11.1121 5.83873 11.2879 5.66291C11.4637 5.4871 11.5625 5.24864 11.5625 5V4.6875H12.5C12.7486 4.6875 12.9871 4.58873 13.1629 4.41291C13.3387 4.2371 13.4375 3.99864 13.4375 3.75C13.4375 3.50136 13.3387 3.2629 13.1629 3.08709C12.9871 2.91127 12.7486 2.8125 12.5 2.8125H11.5625V2.5ZM2.5 6.5625C2.25136 6.5625 2.0129 6.66127 1.83709 6.83709C1.66127 7.0129 1.5625 7.25136 1.5625 7.5C1.5625 7.74864 1.66127 7.9871 1.83709 8.16291C2.0129 8.33873 2.25136 8.4375 2.5 8.4375H3.4375V8.75C3.4375 8.99864 3.53627 9.2371 3.71209 9.41291C3.8879 9.58873 4.12636 9.6875 4.375 9.6875C4.62364 9.6875 4.8621 9.58873 5.03791 9.41291C5.21373 9.2371 5.3125 8.99864 5.3125 8.75V8.4375H12.5C12.7486 8.4375 12.9871 8.33873 13.1629 8.16291C13.3387 7.9871 13.4375 7.74864 13.4375 7.5C13.4375 7.25136 13.3387 7.0129 13.1629 6.83709C12.9871 6.66127 12.7486 6.5625 12.5 6.5625H5.3125V6.25C5.3125 6.12689 5.28825 6.00498 5.24114 5.89123C5.19402 5.77749 5.12497 5.67414 5.03791 5.58709C4.95086 5.50003 4.84751 5.43098 4.73377 5.38386C4.62002 5.33675 4.49811 5.3125 4.375 5.3125C4.25189 5.3125 4.12998 5.33675 4.01623 5.38386C3.90249 5.43098 3.79914 5.50003 3.71209 5.58709C3.62503 5.67414 3.55598 5.77749 3.50886 5.89123C3.46175 6.00498 3.4375 6.12689 3.4375 6.25V6.5625H2.5ZM1.5625 11.25C1.5625 11.0014 1.66127 10.7629 1.83709 10.5871C2.0129 10.4113 2.25136 10.3125 2.5 10.3125H9.6875V10C9.6875 9.75136 9.78627 9.5129 9.96209 9.33709C10.1379 9.16127 10.3764 9.0625 10.625 9.0625C10.8736 9.0625 11.1121 9.16127 11.2879 9.33709C11.4637 9.5129 11.5625 9.75136 11.5625 10V10.3125H12.5C12.7486 10.3125 12.9871 10.4113 13.1629 10.5871C13.3387 10.7629 13.4375 11.0014 13.4375 11.25C13.4375 11.4986 13.3387 11.7371 13.1629 11.9129C12.9871 12.0887 12.7486 12.1875 12.5 12.1875H11.5625V12.5C11.5625 12.7486 11.4637 12.9871 11.2879 13.1629C11.1121 13.3387 10.8736 13.4375 10.625 13.4375C10.3764 13.4375 10.1379 13.3387 9.96209 13.1629C9.78627 12.9871 9.6875 12.7486 9.6875 12.5V12.1875H2.5C2.25136 12.1875 2.0129 12.0887 1.83709 11.9129C1.66127 11.7371 1.5625 11.4986 1.5625 11.25Z" fill="#F9F9F9"/>
</svg>
